<?xml version="1.0" encoding="utf-8"?>
<!-- Generator: Adobe Illustrator 24.0.0, SVG Export Plug-In . SVG Version: 6.00 Build 0)  -->
<svg version="1.1" id="Layer_1" xmlns="http://www.w3.org/2000/svg" xmlns:xlink="http://www.w3.org/1999/xlink" x="0px" y="0px"
	 width="432px" height="54.3px" viewBox="0 0 432 54.3" style="enable-background:new 0 0 432 54.3;" xml:space="preserve">
<style type="text/css">
	.st0{fill:#212121;}
</style>
<g>
	<path class="st0" d="M167.3,9.7c1.3,0.3,2.6,0.5,3.8,0.8c3.7,1,6.8,3,9.6,5.7c-0.9,0.8-1.7,1.6-2.6,2.4c-0.3-0.2-0.5-0.4-0.8-0.7
		c-3.6-3.2-7.8-5-12.7-4.9c-7.1,0.2-13.1,5.3-14.2,12.2c-0.6,4,0.5,7.6,3,10.8c4.2,5.3,12.5,7.3,18.6,4.4c3.5-1.7,5.8-4.4,6.7-8.2
		c0.1-0.3,0.1-0.6,0.2-1c-3.6,0-7,0-10.6,0c0-1.1,0-2.1,0-3.1c4.7,0,9.5,0,14.4,0c-0.1,1.2-0.2,2.3-0.3,3.4
		c-1,7.2-6.6,12.4-13.9,13.2c-5.2,0.5-10.1-0.2-14.4-3.3c-5.8-4.1-8.5-11.1-6.9-18.2c1.5-6.7,7.1-12,14-13.2
		c0.6-0.1,1.3-0.3,1.9-0.4C164.5,9.7,165.9,9.7,167.3,9.7z"/>
	<path class="st0" d="M31.9,9.7c1.3,0.3,2.6,0.5,3.8,0.8c3.7,1,6.8,3,9.6,5.7c-0.8,0.8-1.7,1.6-2.6,2.4c-0.3-0.3-0.5-0.5-0.8-0.7
		c-3.6-3.1-7.7-5.1-12.6-4.8c-8.2,0.4-14.7,6.7-14.4,14.8c0.2,6.1,4.8,11.7,11.2,13.3c5,1.2,9.7,0.7,13.7-2.8c2.1-1.8,3.5-4.7,3.6-7
		c-3.5,0-7,0-10.5,0c0-1.1,0-2.1,0-3.2c4.8,0,9.5,0,14.4,0c-0.1,4.4-1.1,8.4-4.1,11.7c-3,3.3-6.9,4.9-11.3,5.1
		c-5.9,0.3-11.2-1-15.5-5.4c-2.7-2.7-4.3-5.9-4.8-9.7c0-0.2-0.1-0.4-0.2-0.7c0-1.2,0-2.3,0-3.5c0.1-0.2,0.1-0.5,0.2-0.7
		c1.3-7.3,5.5-12,12.5-14.3c1.2-0.4,2.5-0.6,3.8-0.8C29.3,9.7,30.6,9.7,31.9,9.7z"/>
	<path class="st0" d="M97,9.7c0.9,0.2,1.9,0.3,2.8,0.6c8.4,2,13.8,9.8,13.2,18.4c-0.6,8.1-7.1,14.7-14.3,16
		c-9.7,1.7-18.9-4.3-20.8-13.8c-2-10,4.8-19.5,14.9-20.9c0.2,0,0.4-0.1,0.6-0.2C94.5,9.7,95.7,9.7,97,9.7z M81,27.4
		c0,7.9,6.2,14.2,14.1,14.2c8.2,0,14.4-6.1,14.4-14.3c0-8.1-6.3-14.4-14.3-14.4C87.3,12.9,81,19.3,81,27.4z"/>
	<path class="st0" d="M280.3,44c0-11.1,0-22.2,0-33.3c0.1,0,0.1-0.1,0.2-0.1c3.4,0.1,6.8,0,10.2,0.3c3.7,0.4,6.1,2.7,6.8,6
		c0.8,3.4-0.5,6.4-3.6,8.6c-0.1,0.1-0.2,0.2-0.4,0.3c0.4,0.2,0.6,0.3,0.9,0.4c4,1.6,6.2,4.8,6,8.6c-0.2,4.1-2.9,7.5-6.9,8.7
		c-1.2,0.4-2.6,0.5-3.9,0.6c-2.9,0.1-5.8,0-8.7,0C280.7,44,280.5,44,280.3,44z M283.6,40.9c2.7-0.1,5.2-0.1,7.8-0.4
		c2.7-0.3,4.6-1.9,5.3-4.5c0.9-3.2-1-6.4-4.6-7.5c-2.8-0.8-5.6-0.6-8.5-0.6C283.6,32.2,283.6,36.4,283.6,40.9z M283.6,24.7
		c2.2-0.2,4.2-0.3,6.2-0.6c0.7-0.1,1.3-0.4,1.9-0.8c1.9-1.3,2.8-3.1,2.5-5.4c-0.2-1.9-1.4-3.2-3.3-3.7c-2.4-0.7-4.8-0.4-7.3-0.4
		C283.6,17.4,283.6,20.9,283.6,24.7z"/>
	<path class="st0" d="M341.3,28.6c0,5.1,0,10.2,0,15.4c-1.1,0-2.1,0-3.2,0c0-11.1,0-22.2,0-33.4c0.1,0,0.2-0.1,0.3-0.1
		c4.3,0.1,8.6,0,12.9,0.4c4.4,0.3,7.5,3.7,7.7,7.9c0.2,5-2.4,8.4-7.1,9.3c-1.4,0.3-2.8,0.4-4.4,0.5c4,5.1,7.9,10.2,12,15.4
		c-1.4,0-2.7,0-3.9,0c-0.3,0-0.6-0.4-0.8-0.7c-3.6-4.6-7.2-9.1-10.7-13.8C343.3,28.5,342.6,28.2,341.3,28.6z M341.4,13.7
		c0,4,0,7.7,0,11.7c3.3-0.1,6.5-0.1,9.7-0.5c2.8-0.3,4.6-2.8,4.5-5.7c-0.1-2.8-2-4.9-4.9-5.2C347.6,13.8,344.5,13.8,341.4,13.7z"/>
	<path class="st0" d="M123.3,28.5c0,5.1,0,10.2,0,15.4c-1.1,0-2.2,0-3.3,0c0-11.1,0-22.2,0-33.3c0.1,0,0.2-0.1,0.3-0.1
		c4.3,0.1,8.6,0,12.9,0.3c4.5,0.3,7.6,3.7,7.8,8c0.2,4.9-2.5,8.3-7.1,9.2c-1.4,0.3-2.8,0.4-4.4,0.5c4,5.1,7.9,10.2,12,15.5
		c-1.4,0-2.6,0.1-3.8,0c-0.3,0-0.7-0.4-0.9-0.8c-3.6-4.6-7.2-9.1-10.7-13.8C125.3,28.4,124.5,28.3,123.3,28.5z M123.4,13.7
		c0,3.9,0,7.7,0,11.7c3.3-0.2,6.6-0.1,9.8-0.5c2.8-0.3,4.5-2.9,4.4-5.6c-0.2-2.8-2-5-4.9-5.2C129.6,13.8,126.5,13.8,123.4,13.7z"/>
	<path class="st0" d="M189.2,44c0-11.2,0-22.2,0-33.4c6.4,0,12.8,0,19.2,0c0,1,0,2,0,3.2c-5.3,0-10.5,0-15.8,0c0,3.6,0,7,0,10.5
		c5.2,0,10.4,0,15.7,0c0,1.1,0,2.1,0,3.3c-5.2,0-10.4,0-15.7,0c0,4.4,0,8.8,0,13.2c5.2,0,10.4,0,15.7,0c0,1.1,0,2.1,0,3.2
		C201.9,44,195.6,44,189.2,44z"/>
	<path class="st0" d="M73.1,10.6c0,1,0,2,0,3.2c-5.2,0-10.5,0-15.8,0c0,3.6,0,7,0,10.5c5.2,0,10.4,0,15.6,0c0,1.1,0,2.2,0,3.3
		c-5.2,0-10.4,0-15.6,0c0,4.4,0,8.7,0,13.2c5.2,0,10.4,0,15.6,0c0,1.1,0,2.1,0,3.2c-6.3,0-12.6,0-19,0c0-11.1,0-22.2,0-33.4
		C60.3,10.6,66.7,10.6,73.1,10.6z"/>
	<path class="st0" d="M258.4,13.8c0,3.6,0,7,0,10.5c5.2,0,10.4,0,15.7,0c0,1.1,0,2.1,0,3.2c-5.2,0-10.4,0-15.6,0c0,4.5,0,8.8,0,13.2
		c5.2,0,10.4,0,15.6,0c0,1.1,0,2.1,0,3.2c-6.3,0-12.6,0-19,0c0-11.1,0-22.2,0-33.4c6.4,0,12.7,0,19.1,0c0,1,0,2.1,0,3.2
		C269,13.8,263.7,13.8,258.4,13.8z"/>
	<path class="st0" d="M373.9,44c2.2-4.7,4.4-9.2,6.5-13.7c3-6.3,6-12.7,9.1-19c0.1-0.3,0.5-0.5,0.7-0.8c0.3,0.2,0.6,0.5,0.8,0.8
		c5,10.6,10,21.3,15,31.9c0.1,0.2,0.2,0.5,0.3,0.8c-1.1,0-2.1,0.1-3.1,0c-0.3,0-0.6-0.4-0.8-0.7c-1.5-3.2-3.1-6.3-4.6-9.5
		c-0.3-0.6-0.6-0.8-1.3-0.8c-4.2,0-8.4,0-12.7,0c-0.7,0-1,0.2-1.3,0.8c-1.5,3.1-3,6.2-4.4,9.4c-0.3,0.7-0.7,1-1.5,0.9
		C375.8,44,374.9,44,373.9,44z M396,29.7c-1.9-4.1-3.8-8-5.8-12.1c-2,4.2-3.8,8.1-5.8,12.1C388.3,29.7,392,29.7,396,29.7z"/>
	<path class="st0" d="M248.5,10.7c-5.3,4.9-10.6,9.8-16,14.8c5.8,6.1,11.5,12.2,17.4,18.5c-1.6,0-2.9,0-4.3,0
		c-0.3,0-0.6-0.4-0.8-0.6c-4.4-4.6-8.8-9.3-13.2-13.9c-0.2-0.3-0.4-0.5-0.7-0.8c-0.1,0-0.2,0.1-0.2,0.1c0,5.1,0,10.2,0,15.3
		c-1.2,0-2.3,0-3.4,0c0-11.1,0-22.2,0-33.4c1.1,0,2.1,0,3.3,0c0,4.1,0,8.1,0,12.5c0.4-0.4,0.7-0.6,0.9-0.8c4-3.7,7.9-7.4,11.9-11.1
		c0.5-0.5,1-0.7,1.6-0.7c1.1,0.1,2.2,0,3.2,0C248.4,10.6,248.4,10.6,248.5,10.7z"/>
	<path class="st0" d="M326.2,10.6c1.1,0,2.2,0,3.3,0c0,0.3,0,0.7,0,1c0,6.4,0,12.8,0,19.2c0,1.8-0.2,3.7-0.5,5.5
		c-0.6,4.7-5.1,9.1-11.7,8.4c-2.8-0.3-5.3-1.2-7.3-3.3c-1.8-1.8-2.6-4.1-2.7-6.6c-0.1-4.1-0.1-8.1-0.2-12.2c0-3.7,0-7.4,0-11
		c0-0.3,0-0.7,0-1.1c1.1,0,2.2,0,3.3,0c0,0.4,0,0.8,0,1.2c0,6.7,0,13.5,0,20.2c0,1.2,0,2.4,0.2,3.6c0.5,3.3,2.8,5.4,6.3,6
		c4.8,0.8,8.9-2.4,9-7.2c0.2-7.5,0.1-14.9,0.2-22.4C326.2,11.5,326.2,11.1,326.2,10.6z"/>
	<path class="st0" d="M369.1,10.5c0,11.2,0,22.3,0,33.5c-1,0-1.9,0-2.8,0c-0.2,0-0.4-0.3-0.5-0.5c-0.1-0.2,0-0.4,0-0.7
		c0-10.4,0-20.7,0-31.1c0-1,0.2-1.4,1.3-1.2C367.7,10.6,368.3,10.5,369.1,10.5z"/>
</g>
</svg>
