<svg xmlns="http://www.w3.org/2000/svg" width="271.375" height="86.947" viewBox="0 0 271.375 86.947">
  <g id="Group_5" data-name="Group 5" transform="translate(0 0)">
    <path id="Path_2" data-name="Path 2" d="M15.52,88.526H10.656V5.841H15.52Z" transform="translate(-10.656 -1.579)" fill="#fff"/>
    <path id="Path_3" data-name="Path 3" d="M21.394,5.095V18.347a.67.67,0,0,1-.672.669H17.2a.667.667,0,0,1-.669-.669V5.095a.667.667,0,0,1,.669-.669h3.524A.67.67,0,0,1,21.394,5.095Z" transform="translate(1.162 -4.426)" fill="#ffc515"/>
    <path id="Path_4" data-name="Path 4" d="M44.667,66.408q-3.551,2.625-9.729,2.623-14.593,0-14.593-14.59V30.12q0-14.589,14.593-14.59,6.176,0,9.729,2.626V15.53h4.864v53.5H44.667Zm-9.729-2.238q9.727,0,9.729-9.729V30.12q0-9.727-9.729-9.726T25.209,30.12V54.442Q25.209,64.169,34.938,64.171Z" transform="translate(8.838 17.915)" fill="#fff"/>
    <path id="Path_5" data-name="Path 5" d="M57.586,85.9q-3.551,2.625-9.729,2.623-14.593,0-14.593-14.59V49.614q0-14.589,14.593-14.59,6.176,0,9.729,2.626V5.841H62.45V88.526H57.586Zm-9.729-2.238q9.727,0,9.729-9.729V49.614q0-9.727-9.729-9.726t-9.729,9.726V73.936Q38.128,83.663,47.857,83.665Z" transform="translate(34.83 -1.579)" fill="#fff"/>
    <path id="Path_6" data-name="Path 6" d="M51.047,69.032H46.183V15.53h4.864v2.626q3.551-2.629,9.729-2.626H65.64v4.864H60.776q-9.727,0-9.729,9.726Z" transform="translate(60.823 17.915)" fill="#fff"/>
    <path id="Path_7" data-name="Path 7" d="M81.156,69.032q-14.593,0-14.593-14.59h4.864q0,9.727,9.729,9.729t9.729-9.729q0-5.349-12.162-10.458T66.563,30.12q0-14.589,14.593-14.59t14.59,14.59H90.885q0-9.727-9.729-9.726T71.427,30.12q0,5.354,12.159,10.458T95.746,54.442Q95.746,69.035,81.156,69.032Z" transform="translate(101.827 17.915)" fill="#fff"/>
    <path id="Path_8" data-name="Path 8" d="M93.348,69.032q-14.593,0-14.593-14.59h4.864q0,9.727,9.729,9.729t9.729-9.729q0-5.349-12.162-10.458T78.755,30.12q0-14.589,14.593-14.59t14.593,14.59h-4.864q0-9.727-9.729-9.726T83.619,30.12q0,5.354,12.162,10.458t12.159,13.864Q107.941,69.035,93.348,69.032Z" transform="translate(126.357 17.915)" fill="#fff"/>
    <path id="Path_9" data-name="Path 9" d="M105.658,64.171q9.727,0,9.729-9.729h4.864q0,14.593-14.593,14.59T91.065,54.442V30.12q0-14.589,14.593-14.59t14.593,14.59v5.828L95.929,51.108v3.334Q95.929,64.169,105.658,64.171Zm0-43.776q-9.727,0-9.729,9.726V46.243l19.388-12.388.069-3.735Q115.387,20.393,105.658,20.394Z" transform="translate(151.124 17.915)" fill="#fff"/>
    <path id="Path_10" data-name="Path 10" d="M68.165,64.171q9.727,0,9.729-9.729h4.864q0,14.593-14.593,14.59t-14.59-14.59V30.12q0-14.589,14.59-14.59T82.758,30.12v5.828L58.439,51.108v3.334Q58.439,64.169,68.165,64.171Zm0-43.776q-9.727,0-9.726,9.726V46.243L77.824,33.855l.069-3.735Q77.894,20.393,68.165,20.394Z" transform="translate(75.696 17.915)" fill="#fff"/>
  </g>
</svg>
