<?xml version="1.0" encoding="utf-8"?>
<!-- Generator: Adobe Illustrator 24.0.0, SVG Export Plug-In . SVG Version: 6.00 Build 0)  -->
<svg version="1.1" id="Layer_1" xmlns="http://www.w3.org/2000/svg" xmlns:xlink="http://www.w3.org/1999/xlink" x="0px" y="0px"
	 width="105.6px" height="314.1px" viewBox="0 0 105.6 314.1" style="enable-background:new 0 0 105.6 314.1;" xml:space="preserve"
	>
<style type="text/css">
	.st0{fill:#FFFFFF;stroke:#000000;stroke-width:2.0218;stroke-miterlimit:10;}
	.st1{fill:#212121;}
</style>
<rect x="1139.5" y="377.6" class="st0" width="355.5" height="355.5"/>
<g>
	<path class="st1" d="M47.7,17.5H50v22.3h13.6v2H47.7V17.5z"/>
	<path class="st1" d="M47.7,58.3h16.8v2H50v8.8h13.5v2H50v9.6h14.6v2H47.7V58.3z"/>
	<path class="st1" d="M47.7,139.9h15.4v2H50v8.8h11.6v2H50v11.6h-2.3V139.9z"/>
	<path class="st1" d="M47.9,180.7h2.3V205h-2.3V180.7z"/>
	<path class="st1" d="M47.7,221.5H50v22.3h13.6v2H47.7V221.5z"/>
</g>
<g>
	<path class="st1" d="M22.2,288.8h3.9c1.6,0,2.6,0.9,2.6,2.5c0,1.6-1,2.5-2.6,2.5H23v3.8h-0.8V288.8z M23,293.1h2.9
		c1.2,0,2-0.6,2-1.8c0-1.2-0.8-1.8-2-1.8H23V293.1z"/>
	<path class="st1" d="M40.3,288.8h0.9l3.5,8.8h-0.9l-1.1-2.7h-4l-1.1,2.7h-0.9L40.3,288.8z M39,294.2h3.5l-1.7-4.5L39,294.2z"/>
	<path class="st1" d="M54.2,288.8h4c1.5,0,2.7,0.7,2.7,2.3c0,1.1-0.6,2-1.7,2.2v0c1.1,0.1,1.5,0.9,1.5,2c0,0.6,0,1.8,0.4,2.3h-0.9
		c-0.2-0.3-0.2-1-0.2-1.4c-0.1-1.2-0.2-2.6-1.8-2.5H55v3.9h-0.8V288.8z M55,293h3.1c1,0,1.9-0.6,1.9-1.7c0-1.1-0.6-1.8-1.9-1.8H55
		V293z"/>
	<path class="st1" d="M71.1,288.8H72v8.8h-0.8V288.8z"/>
	<path class="st1" d="M82.8,294.7c0,1.8,1.3,2.4,2.9,2.4c0.9,0,2.3-0.5,2.3-1.8c0-1-1-1.4-1.8-1.6l-2-0.5c-1-0.3-2-0.8-2-2.1
		c0-0.9,0.6-2.5,3-2.5c1.7,0,3.3,0.9,3.3,2.7h-0.8c0-1.3-1.2-2-2.4-2c-1.1,0-2.2,0.4-2.2,1.8c0,0.8,0.6,1.2,1.3,1.3l2.2,0.5
		c1.2,0.3,2.3,0.9,2.3,2.3c0,0.6-0.2,2.5-3.4,2.5c-2.1,0-3.6-0.9-3.5-3.1H82.8z"/>
</g>
</svg>
