<?xml version="1.0" encoding="utf-8"?>
<!-- Generator: Adobe Illustrator 24.0.0, SVG Export Plug-In . SVG Version: 6.00 Build 0)  -->
<svg version="1.1" id="Layer_1" xmlns="http://www.w3.org/2000/svg" xmlns:xlink="http://www.w3.org/1999/xlink" x="0px" y="0px"
	 width="432px" height="182.5px" viewBox="0 0 432 182.5" style="enable-background:new 0 0 432 182.5;" xml:space="preserve">
<style type="text/css">
	.st0{fill:#212121;}
</style>
<g>
	<path class="st0" d="M48.6,99.1c0.2,1.1,0.3,6.2,0.1,6.9c-0.2,0.1-0.3,0-0.3-0.1c-0.1-0.4-0.2-0.7-0.4-1.1
		c-0.8-2.2-2.2-3.9-4.3-4.8c-1.9-0.9-3.9-0.8-5.9-0.1c-2,0.7-3.6,2.5-3.5,5.4c0.1,1.7,0.7,3.2,1.9,4.4c0.5,0.5,1.1,1,1.7,1.4
		c1.6,1.1,3.2,2.1,4.8,3.1c1.3,0.8,2.5,1.6,3.6,2.5c0.9,0.8,1.7,1.7,2.4,2.7c1.4,2.1,1.7,4.3,1,6.7c-1,3.6-4.4,6.4-8.2,6.8
		c-2.8,0.3-5.6-0.1-8.3-1.1c-2.1-0.8-2-0.7-2.2-2.9c-0.1-1.3-0.2-2.7-0.3-4c0-0.4-0.1-0.8,0-1.2c0.3,0,0.3,0.2,0.4,0.3
		c0.3,0.8,0.5,1.6,0.8,2.4c0.3,0.9,0.8,1.7,1.4,2.5c1.4,1.8,3.2,2.8,5.5,3.1c1,0.1,2,0.2,3.1,0c3.6-0.6,5.9-3.9,5.3-7.3
		c-0.2-1.4-0.7-2.6-1.6-3.6c-0.9-1-1.9-1.9-3-2.7c-1.2-0.9-2.5-1.7-3.8-2.5c-1.2-0.8-2.4-1.5-3.6-2.4c-0.8-0.7-1.6-1.4-2.2-2.3
		c-1.5-2-1.9-4.1-1.2-6.5c1-3.3,3.3-5.3,6.6-6.1c1.9-0.5,3.7-0.3,5.6,0.1c0.7,0.2,1.5,0.4,2.2,0.6c0.2,0.1,0.5,0.1,0.7,0.2
		c0.4,0.1,0.8,0,1.1-0.4C48.2,99.1,48.3,99.1,48.6,99.1z"/>
	<path class="st0" d="M240.2,132.4c0.1-0.2,0.1-0.4,0.2-0.4c0.1-0.1,0.3-0.1,0.5-0.1c0.5-0.1,1.1-0.1,1.6-0.2c1-0.1,1.6-0.7,1.9-1.7
		c0.2-0.6,0.2-1.3,0.3-1.9c0.1-0.9,0.1-1.8,0.1-2.7c0-8,0-16,0-23.9c0-0.4,0-0.7,0-1.2c-0.2,0-0.4-0.1-0.6-0.1
		c-2.3,0-4.6,0.1-6.9,0.4c-0.4,0.1-0.7,0.1-1.1,0.2c-0.9,0.2-1.5,0.7-1.9,1.4c-0.4,0.6-0.6,1.2-0.8,1.9c0,0.1-0.2,0.1-0.3,0.2
		c-0.1-0.8,0.1-4.5,0.3-5.3c0.2,0,0.4-0.1,0.6-0.1c6.2,0.2,12.5,0.3,18.7,0.2c1.8,0,3.6-0.1,5.3-0.2c0.3,0,0.7,0,1.1,0
		c0.2,0.4,0.2,0.9,0.2,1.3c0,0.5,0,1,0.1,1.4c0,0.4,0.1,0.9,0.1,1.3c0,0.4,0.1,0.9,0,1.4c-0.1-0.1-0.3-0.1-0.3-0.2
		c-0.1-0.2-0.2-0.5-0.3-0.8c-0.1-0.4-0.3-0.8-0.5-1.1c-0.3-0.6-0.8-1-1.4-1.2c-0.9-0.3-1.9-0.5-2.8-0.6c-1.9-0.2-3.8-0.3-5.7-0.3
		c-0.1,0-0.3,0-0.4,0.1c0,0.2-0.1,0.4-0.1,0.6c0,0.7,0,1.4,0,2.1c0,7.5,0,15,0,22.5c0,1.2,0.1,2.3,0.2,3.5c0,0.4,0.1,0.7,0.2,1.1
		c0.3,1,0.9,1.6,2,1.7c0.6,0.1,1.2,0.1,1.7,0.2c0.1,0,0.3,0,0.4,0.1c0.1,0.1,0.1,0.3,0,0.3c-0.1,0.1-0.2,0.1-0.4,0.1
		c-0.6,0-1.2,0-1.8,0c-2.5-0.1-5-0.1-7.5,0C241.8,132.4,241.1,132.5,240.2,132.4z"/>
	<path class="st0" d="M126.5,109.2c0.4,0,0.6-0.1,0.8-0.1c0.8,0,1.5,0.1,2.3,0.1c1.8,0,3.6-0.1,5.3-0.2c1.9-0.1,3.8,0,5.6,0.7
		c4.2,1.5,6.6,4.5,7.3,9c0.3,1.7,0.1,3.4-0.3,5c-0.7,2.7-2.2,4.7-4.5,6.3c-1.8,1.2-3.8,1.9-5.9,2.2c-1,0.1-2.1,0.2-3.2,0.2
		c-2.2,0.1-4.3,0.1-6.5,0.2c-0.3,0-0.5,0-0.8,0c-0.1-0.2,0-0.3,0.2-0.3c0.4-0.1,0.7-0.1,1.1-0.2c0.5-0.1,0.9-0.4,1-0.9
		c0.1-0.4,0.2-0.9,0.3-1.3c0.1-0.8,0.1-1.6,0.1-2.5c0-4.3,0-8.7,0-13c0-0.7,0-1.4-0.1-2.2c0-0.2,0-0.5-0.1-0.7
		c-0.2-1.2-0.6-1.6-1.8-1.8C127.2,109.5,126.9,109.6,126.5,109.2z M131.5,110.2c0,0.4,0,0.8,0,1.1c0,5.4,0,10.8,0,16.1
		c0,0.5,0,1,0,1.4c0,0.3,0,0.6,0.1,0.9c0.1,0.8,0.6,1.3,1.5,1.5c1.3,0.3,2.7,0.3,4,0.1c0.9-0.1,1.7-0.3,2.5-0.6
		c2.7-1.1,4.3-3.2,5.1-6.1c0.5-2,0.6-4,0.4-6c-0.2-2-0.9-3.8-2.1-5.4c-1.4-1.8-3.2-3-5.4-3.4c-1.5-0.3-3.1-0.3-4.6-0.1
		C132.5,109.9,132,109.8,131.5,110.2z"/>
	<path class="st0" d="M392.8,121.1c0.1,0.1,0.1,0.2,0.2,0.3c1.4,1.1,2.4,2.4,3.4,3.8c0.7,1.1,1.4,2.2,2.1,3.3
		c0.3,0.6,0.7,1.1,1.1,1.6c0.7,1.2,1.8,1.8,3.1,1.9c0.2,0,0.4,0,0.5,0.2c-0.1,0.2-0.3,0.2-0.4,0.2c-0.8,0-1.6,0-2.4-0.1
		c-0.5,0-1.1-0.1-1.6-0.1c-0.6,0-1-0.2-1.2-0.7c-0.2-0.3-0.3-0.6-0.5-0.9c-0.9-1.5-1.7-3-2.6-4.5c-0.6-1.1-1.4-2.1-2.2-3.1
		c-0.8-0.9-1.7-1.4-2.9-1.4c-0.7,0-1.4,0-2.1,0c-0.1,0.2-0.1,0.4-0.1,0.6c0,2.2,0,4.5,0,6.7c0,0.4,0.1,0.9,0.2,1.3
		c0.2,1,0.6,1.3,1.6,1.5c0.4,0.1,0.9,0,1.4,0.3c-0.2,0.1-0.3,0.2-0.4,0.2c-0.2,0-0.4,0-0.6,0c-2.2-0.1-4.3-0.1-6.5,0
		c-0.2,0-0.4,0-0.6,0c-0.1-0.2,0-0.3,0.2-0.3c0.3-0.1,0.7-0.1,1-0.1c0.6-0.1,1-0.4,1.2-1c0.1-0.4,0.2-0.7,0.2-1.1
		c0.1-0.9,0.1-1.7,0.1-2.6c0-4.3,0-8.6,0-12.8c0-0.9,0-1.7-0.1-2.6c0-0.4-0.1-0.7-0.2-1.1c-0.2-0.6-0.5-0.9-1.1-1
		c-0.4-0.1-0.9-0.2-1.5-0.3c0.2-0.1,0.3-0.3,0.4-0.3c0.4,0,0.9,0,1.3,0c1.3,0.1,2.6,0.1,3.9,0c1.1-0.1,2.3-0.2,3.4-0.1
		c1.1,0.1,2.2,0.4,3.1,1c1.6,1,2.4,2.4,2.4,4.3c0.1,2.1-0.6,3.9-2.1,5.4C393.9,120.2,393.4,120.6,392.8,121.1z M387,120.9
		c0.4,0.1,0.8,0.2,1.2,0.2c0.5,0.1,1.1,0.1,1.6,0.1c1.8,0,3-0.9,3.8-2.5c0.1-0.3,0.2-0.6,0.3-0.9c0.3-1.3,0.3-2.6,0.1-4
		c-0.4-2.1-1.8-3.3-3.8-3.9c-0.9-0.2-1.8-0.2-2.6-0.2c-0.2,0-0.4,0.1-0.6,0.1C386.9,110.8,386.9,119.8,387,120.9z"/>
	<path class="st0" d="M101.3,132.2c-0.4,0.1-0.4,0.1-0.5,0.1c-1.9,0-3.8,0-5.7,0c0,0-0.1,0-0.1-0.1c0,0,0-0.1,0-0.1
		c0.2-0.2,0.5-0.2,0.7-0.2c1.1,0,1.8-0.5,1.9-1.8c0.1-0.5,0.1-1.1,0.1-1.6c0-4.9,0-9.9,0-14.8c0-0.7-0.1-1.4-0.2-2
		c-0.2-1.4-1.1-2.1-2.2-2.2c-0.1,0-0.2-0.1-0.4-0.2c0,0,0-0.1,0-0.1c0,0,0.1-0.1,0.1-0.1c0.1,0,0.3,0,0.4,0c1.4,0.1,2.7,0.1,4.2,0.2
		c0.5,0.8,1.1,1.7,1.8,2.6c0.6,0.9,1.3,1.8,1.9,2.7c0.6,0.9,1.3,1.8,1.9,2.7c0.6,0.9,1.3,1.8,2,2.6c0.7,0.9,1.3,1.8,2,2.6
		c0.7,0.9,1.3,1.7,2,2.6c0.7,0.9,1.3,1.7,2,2.6c0.3-0.1,0.3-0.4,0.3-0.6c0-1.5,0-3.1,0-4.6c0-3.1,0-6.2-0.1-9.3
		c0-0.7-0.1-1.4-0.2-2.1c-0.1-0.8-0.6-1.3-1.4-1.4c-0.4,0-0.7-0.1-1.2-0.2c0.2-0.2,0.3-0.3,0.3-0.3c0.3,0,0.6,0,0.9,0
		c1.2,0.1,2.5,0.1,3.7,0c0.4,0,0.9-0.1,1.3,0c0.1,0.2,0,0.3-0.2,0.3c-0.4,0.1-0.7,0.1-1.1,0.2c-0.6,0.1-0.9,0.4-1.1,1
		c-0.1,0.4-0.2,0.8-0.2,1.2c-0.1,1.1-0.1,2.1-0.1,3.2c0,3.8,0,7.5,0,11.3c0,1.8,0.1,3.6,0.1,5.3c0,0.2,0.1,0.5-0.1,0.7
		c0,0-0.1,0-0.1,0c0,0-0.1,0-0.1,0c0,0-0.1,0-0.1-0.1c0,0,0-0.1-0.1-0.1s0-0.1-0.1-0.1c0,0,0-0.1-0.1-0.1c0-0.1-0.1-0.1-0.1-0.2
		c-0.1-0.1-0.1-0.2-0.2-0.2c-4.8-6.4-9.6-12.7-14.4-19.1c0,0,0-0.1-0.1-0.1c0,0,0-0.1-0.1-0.1c0,0,0-0.1-0.1-0.1c0,0,0-0.1-0.1-0.1
		c0,0-0.1,0-0.1-0.1c0,0-0.1,0-0.2,0c-0.1,0.2-0.1,0.5-0.1,0.8c0,4.6,0.1,9.2,0.1,13.9c0,1.1,0.1,2.1,0.1,3.2c0,0.3,0.1,0.7,0.2,1
		c0.2,0.6,0.6,0.9,1.2,1c0.3,0,0.6,0.1,0.9,0.1C100.8,132,100.9,132.1,101.3,132.2z"/>
	<path class="st0" d="M334.2,132.1c-0.1,0.1-0.2,0.2-0.2,0.2c-2.6,0-5.1,0-7.7,0c-0.1,0-0.1-0.1-0.2-0.1c0,0,0-0.1,0-0.1
		c0.3-0.3,0.6-0.2,1-0.2c1-0.1,1.4-0.4,1.6-1.4c0.1-0.4,0.1-0.7,0.1-1.1c0-0.7,0-1.4,0-2.2c0-4.3,0-8.7,0-13c0-0.7,0-1.4,0-2.1
		c0-0.3,0-0.5-0.1-0.8c-0.2-1.5-0.5-1.8-2-1.8c-0.2,0-0.5-0.1-0.7-0.1c0.1-0.1,0.1-0.3,0.2-0.3c0.3,0,0.7,0,1,0
		c1.6,0.1,3.2,0.1,4.8,0c1.6-0.1,3.1-0.1,4.7,0.4c0.9,0.3,1.7,0.7,2.5,1.2c2,1.5,2.8,3.9,2,6.3c-0.3,0.8-0.6,1.4-1.1,2.1
		c-1.6,2-3.8,2.9-6.3,2.9c-0.4,0-0.4,0-1-0.3c0.3-0.1,0.4-0.1,0.6-0.2c0.6-0.1,1.3-0.1,1.9-0.3c2-0.5,3.3-1.8,3.7-4c0.2-1,0.2-2,0-3
		c-0.4-1.8-1.4-3.2-3.2-3.9c-0.5-0.2-1-0.4-1.6-0.4c-1-0.2-2-0.2-3-0.1c0,0.3-0.1,0.5-0.1,0.7c0,1,0,1.9,0,2.9c0,4.6,0,9.1,0,13.7
		c0,0.8,0,1.5,0,2.3c0,0.3,0,0.6,0.1,0.9c0.2,1.1,0.6,1.4,1.7,1.6C333.3,131.9,333.7,131.9,334.2,132.1z"/>
	<path class="st0" d="M350.5,109.2c0.9-0.2,1.5,0,2.1,0c0.6,0,1.2,0.1,1.8,0.1c0.7,0,1.3,0,2-0.1c0.6,0,1.2,0,1.8,0
		c0.1,0.2,0,0.3-0.1,0.3c-0.4,0.1-0.7,0.1-1.1,0.2c-0.6,0.1-1,0.5-1.1,1c-0.1,0.4-0.2,0.7-0.2,1.1c-0.1,1-0.1,2.1-0.1,3.1
		c0,2.8,0,5.6,0,8.4c0,1.1,0,2.3,0.3,3.4c0.1,0.4,0.2,0.9,0.4,1.3c0.8,2,2.4,3.2,4.5,3.6c1.1,0.2,2.2,0.2,3.3,0
		c1.7-0.3,3-1.2,3.9-2.6c0.8-1.2,1.2-2.5,1.2-3.9c0.1-0.9,0-1.8,0-2.8c0-2.9,0-5.8-0.1-8.7c0-0.8-0.1-1.6-0.2-2.4
		c0-0.2-0.1-0.5-0.2-0.7c-0.2-0.5-0.5-0.7-1-0.8c-0.5-0.1-0.9-0.2-1.4-0.3c0.1-0.1,0.2-0.3,0.2-0.3c0.2,0,0.5,0,0.7,0
		c1.4,0.1,2.9,0.1,4.3,0c0.3,0,0.7-0.1,1,0.1c-0.1,0.1-0.2,0.2-0.2,0.2c-0.4,0.1-0.8,0.1-1.2,0.2c-0.5,0.1-0.9,0.4-1,0.9
		c-0.1,0.4-0.2,0.8-0.2,1.2c-0.1,0.9-0.1,1.8-0.1,2.7c0,3,0,6.1,0,9.1c0,1.3-0.1,2.6-0.5,3.9c-0.9,3.1-3.2,5-6.5,5.3
		c-1.2,0.1-2.4,0.1-3.6-0.2c-3.3-0.7-5.2-3-5.8-6.2c-0.1-0.8-0.2-1.6-0.2-2.3c0-3.6,0-7.2,0-10.8c0-0.7-0.1-1.4-0.2-2.1
		c-0.2-1-0.5-1.3-1.5-1.5C351.4,109.5,351,109.6,350.5,109.2z"/>
	<path class="st0" d="M79.6,109.2c0.1,0,0.2-0.1,0.3-0.1c2,0.1,3.9,0.1,5.9,0c0.1,0.3,0,0.4-0.2,0.4c-0.4,0.1-0.7,0.1-1.1,0.2
		c-0.6,0.1-0.9,0.4-1.1,1c-0.1,0.3-0.2,0.5-0.2,0.8c-0.1,0.9-0.1,1.8-0.1,2.8c0,3.2,0,6.4,0,9.5c0,1.2-0.1,2.4-0.4,3.6
		c-0.9,3.2-3.2,5.2-6.5,5.5c-1.2,0.1-2.4,0.1-3.6-0.2c-3.2-0.7-5-2.8-5.7-5.9c-0.2-0.8-0.2-1.7-0.2-2.5c0-3.2,0-6.4,0-9.7
		c0-1-0.1-2-0.1-3c0-0.3-0.1-0.5-0.2-0.8c-0.2-0.6-0.5-0.9-1.1-1c-0.3-0.1-0.7-0.1-1-0.2c-0.1,0-0.2-0.1-0.4-0.2
		c0.5-0.2,0.5-0.2,1.5-0.2c0.5,0,1,0.1,1.5,0.1c0.5,0,1.1,0,1.6,0c0.5,0,1-0.1,1.5-0.1c0.5,0,1-0.1,1.5,0c0.1,0.3-0.1,0.3-0.2,0.3
		c-0.4,0.1-0.7,0.1-1.1,0.2c-0.6,0.1-0.9,0.4-1.1,1c-0.1,0.3-0.2,0.6-0.2,0.9c-0.1,1-0.1,2-0.1,3.1c0,3,0,6,0,8.9
		c0,1.1,0.1,2.3,0.4,3.4c0.2,0.6,0.4,1.1,0.6,1.6c0.7,1.4,1.9,2.4,3.5,2.8c1.5,0.4,3,0.4,4.5,0.1c1.8-0.5,3.1-1.6,4-3.3
		c0.6-1.2,0.8-2.5,0.8-3.9c0-2.2,0-4.4,0-6.7c0-1.9-0.1-3.8-0.1-5.7c0-0.4-0.1-0.7-0.2-1.1c-0.2-0.6-0.5-0.9-1.1-1
		c-0.4-0.1-0.9-0.2-1.3-0.2C79.6,109.3,79.6,109.3,79.6,109.2z"/>
	<path class="st0" d="M173.9,109.3c0.1-0.1,0.2-0.2,0.3-0.2c0.3,0,0.5,0,0.8,0c1.4,0.1,2.7,0.1,4.1,0c0.4,0,0.7-0.1,1.1,0.1
		c0.1,0.3-0.1,0.3-0.2,0.3c-0.4,0.1-0.7,0.1-1.1,0.2c-0.6,0.1-0.9,0.4-1.1,1c-0.1,0.3-0.1,0.5-0.2,0.8c-0.1,0.9-0.1,1.8-0.1,2.8
		c0,3.2,0,6.4,0,9.5c0,1.2-0.1,2.5-0.5,3.7c-0.9,3.1-3.2,5-6.4,5.3c-1.2,0.1-2.5,0.1-3.7-0.2c-3.2-0.7-5-2.8-5.7-5.9
		c-0.2-0.8-0.2-1.7-0.2-2.6c0-3.2,0-6.4,0-9.5c0-1-0.1-2.1-0.1-3.1c0-0.3-0.1-0.6-0.2-0.9c-0.2-0.5-0.5-0.8-1-0.9
		c-0.4-0.1-0.7-0.1-1.1-0.2c-0.1,0-0.2-0.1-0.3-0.2c0.1-0.1,0.1-0.2,0.2-0.2c2.5,0.1,4.9,0.1,7.4,0c0,0,0.1,0.1,0.2,0.1
		c-0.1,0.1-0.1,0.2-0.2,0.2c-0.4,0.1-0.8,0.1-1.2,0.2c-0.5,0.1-0.9,0.4-1,0.9c-0.1,0.3-0.2,0.6-0.2,0.9c-0.1,1-0.1,2-0.1,3
		c0,3.1,0,6.2,0,9.2c0,1.1,0.1,2.2,0.4,3.3c0.2,0.5,0.3,1,0.6,1.5c0.7,1.5,1.9,2.5,3.5,2.9c1.5,0.4,3,0.4,4.5,0
		c1.7-0.4,2.9-1.4,3.8-3c0.7-1.3,1-2.7,1-4.1c0-2.3,0-4.5,0-6.8c0-1.9-0.1-3.8-0.1-5.7c0-0.3-0.1-0.7-0.2-1c-0.2-0.6-0.5-1-1.2-1.1
		c-0.3,0-0.6-0.1-0.9-0.1C174.2,109.5,174.1,109.4,173.9,109.3z"/>
	<path class="st0" d="M277.7,121.7c-0.1,0.2-0.2,0.3-0.2,0.4c-0.7,2.4-1.5,4.8-2.2,7.3c-0.1,0.4-0.2,0.8-0.3,1.2
		c-0.1,0.7,0.2,1.1,0.9,1.3c0.4,0.1,0.8,0.2,1.2,0.2c0,0.3-0.2,0.3-0.3,0.3c-0.8,0-1.5-0.1-2.3-0.1c-0.8,0-1.6,0-2.4,0
		c-0.2,0-0.4,0-0.6,0c-0.1-0.2,0.1-0.3,0.2-0.3c1.2-0.1,1.8-0.8,2.1-1.8c0.6-1.7,1.3-3.4,1.9-5.1c1.5-4.3,2.9-8.7,4.3-13.1
		c0.2-0.6,0.3-1.2,0.5-1.8c0.1-0.3,0.2-0.6,0.2-0.9c0.5-0.2,1-0.2,1.5-0.1c0.1,0.3,0.2,0.6,0.3,1c2,5.8,4,11.7,5.9,17.5
		c0.2,0.7,0.5,1.3,0.8,2c0.2,0.4,0.4,0.8,0.6,1.2c0.4,0.6,0.9,1,1.7,1c0.3,0,0.7,0.1,1.2,0.2c-0.3,0.2-0.4,0.3-0.5,0.3
		c-0.2,0-0.4,0-0.6,0c-2.1-0.1-4.2-0.1-6.4,0c-0.2,0-0.5,0-0.7,0c-0.1,0-0.2-0.1-0.4-0.2c0.4-0.1,0.6-0.2,0.8-0.2
		c0.3-0.1,0.6-0.1,0.9-0.1c0.8-0.2,1-0.5,1-1.3c0-0.3-0.1-0.7-0.2-1c-0.8-2.5-1.6-5-2.4-7.5c0-0.1-0.1-0.2-0.2-0.4
		C283.3,121.6,278.9,121.6,277.7,121.7z M280.8,111.7c-1,3.1-1.9,5.9-2.7,8.9c0,0.1,0,0.2,0,0.3c0.8,0.2,4.9,0.2,5.7,0
		c0-0.1,0-0.3,0-0.4C283.5,119.4,281.1,112.4,280.8,111.7z"/>
	<path class="st0" d="M201.8,109c0,0.1,0.1,0.2,0.1,0.3c0.1,1.5,0.1,3,0.1,4.5c-0.3,0.1-0.3-0.1-0.4-0.2c-0.2-0.6-0.4-1.2-0.7-1.7
		c-1-1.7-3-3-5.6-2.6c-3,0.5-4.4,3.5-2.9,6.1c0.4,0.7,0.9,1.3,1.6,1.7c1.1,0.8,2.3,1.5,3.4,2.3c0.9,0.6,1.7,1.1,2.5,1.7
		c0.7,0.5,1.4,1.2,1.9,2c1.1,1.6,1.3,3.3,0.7,5.1c-0.9,2.6-2.9,4.1-5.6,4.4c-2,0.3-4,0-5.9-0.7c-0.1,0-0.3-0.1-0.4-0.2
		c-0.8-0.3-1.1-0.8-1.1-1.6c0-1.1-0.1-2.1-0.2-3.2c0-0.2,0-0.4,0-0.6c0.3,0.2,0.3,0.4,0.4,0.6c0.2,0.6,0.4,1.2,0.7,1.8
		c1.5,3.1,4.6,3.7,6.9,3.2c3.4-0.8,4.5-4.5,2.7-7.1c-0.4-0.6-1-1.2-1.6-1.7c-1-0.9-2.1-1.6-3.3-2.3c-0.8-0.5-1.7-1-2.5-1.7
		c-0.6-0.5-1.2-1-1.7-1.6c-1.2-1.4-1.4-3-0.8-4.7c0.8-2.4,3.1-4.2,5.7-4.3c1-0.1,2.1,0,3.1,0.3c0.4,0.1,0.9,0.2,1.3,0.3
		C201.1,109.5,201.1,109.5,201.8,109z"/>
	<path class="st0" d="M213.8,83.5c-0.1,0.2-0.3,0.3-0.5,0.3c-2.1,0.2-3.8-0.5-5.4-1.8c-0.9-0.7-1.6-1.6-2.2-2.6
		c-1.5-2.5-2.4-5.3-2.7-8.2c-0.3-2.2-0.2-4.5,0.3-6.7c0.3-1.4,0.6-2.9,1.1-4.3c0.6-1.7,1.4-3.3,2.7-4.7c1.4-1.5,3.1-2.6,5.2-2.9
		c1.3-0.2,2.6,0,3.8,0.4c1.8,0.7,3.3,1.8,4.5,3.3c1.4,1.7,2.5,3.6,3.2,5.7c0.2,0.6,0.3,1.3,0.5,2c0.5,2.5,0.4,4.9-0.2,7.3
		c-0.2,0.7-0.4,1.3-0.4,2.1c0.2-0.1,0.3-0.2,0.4-0.3c0.1-0.2,0.2-0.3,0.3-0.5c0.9-1.9,1.8-3.8,2.4-5.9c0.7-2.5,1-5.1,0.7-7.7
		c-0.4-3.4-1.2-6.7-2.2-10c-0.9-2.9-1.9-5.9-2.8-8.8c-0.8-2.4-1.3-4.8-1.8-7.3c-0.6-2.9-0.8-5.8-0.7-8.7c0-2.5,0.2-4.9,0.7-7.3
		c0.1-0.4,0.1-0.8,0.4-1.1l0,0c-0.2,0.9-0.4,1.9-0.5,2.8c-0.2,2.3-0.3,4.6-0.2,7c0.1,4.9,0.9,9.6,2.4,14.2c1.1,3.3,2.1,6.6,3.2,10
		c0.9,2.8,1.6,5.7,1.9,8.7c0.2,2.4,0.1,4.8-0.4,7.1c-0.5,2.1-1.1,4.1-2.2,6c-0.7,1.3-1.3,2.5-2,3.8c-0.5,1-1,2-1.3,3
		c-0.9,2.6-2,5.1-3.1,7.6c-0.8,1.9-1.4,3.8-1.6,5.8c-0.1,0.8-0.2,1.7-0.3,2.7c-0.1-2.5,0.2-4.8,1-7c0.8-2.3,1.8-4.6,2.8-6.9
		c0.2-0.4,0.3-0.8,0.5-1.2c0-0.1,0-0.3,0-0.5c-0.6,0.3-0.9,0.8-1.3,1.2c-0.4,0.4-0.9,0.8-1.3,1.2c-0.2-0.2,0-0.3,0.1-0.3
		c0.1-0.1,0.1-0.2,0.2-0.2c1.2-1,2.1-2.3,2.9-3.7c0.2-0.3,0.4-0.7,0.5-1c1-2.9,1.7-5.8,1.9-8.8c0.1-1.9-0.3-3.8-0.9-5.6
		c-0.8-2.4-2.2-4.4-3.9-6.2c-1-1.1-2.3-1.8-3.8-2.2c-2.4-0.7-4.6-0.1-6.6,1.2c-1.8,1.2-2.9,2.8-3.7,4.7c-0.6,1.4-1,2.9-1.4,4.4
		c-0.3,1.4-0.7,2.9-0.7,4.4c0,0.8,0,1.6,0.1,2.5c0.3,2.9,1.2,5.5,2.4,8.1c0.5,1.1,1.3,2.1,2.2,3c1.5,1.4,3.3,2.1,5.4,2.1
		C213.4,83.6,213.6,83.5,213.8,83.5C213.8,83.5,213.8,83.5,213.8,83.5z"/>
	<path class="st0" d="M316.4,128c0.2,0.7,0,2.8-0.4,4.1c-0.5,0.3-1.1,0.2-1.7,0.2c-2.3,0-4.6-0.1-6.9-0.1c-1.8,0-3.6,0.1-5.3,0.1
		c-0.3,0-0.5,0.1-0.8-0.2c0.1-0.1,0.3-0.1,0.4-0.2c0.2,0,0.4-0.1,0.6-0.1c1,0,1.6-0.6,1.7-1.7c0.1-0.8,0.2-1.7,0.2-2.6
		c0-4.6,0-9.2,0-13.9c0-0.8-0.1-1.6-0.1-2.4c0-0.2-0.1-0.5-0.1-0.7c-0.2-0.6-0.6-1-1.2-1.1c-0.3,0-0.6-0.1-0.9-0.1
		c-0.1,0-0.2-0.1-0.4-0.1c0-0.2,0.1-0.3,0.3-0.3c0.4,0,0.8,0,1.2,0c1.6,0.1,3.1,0.1,4.7,0c0.5,0,1,0,1.5,0c-0.1,0.2-0.2,0.3-0.3,0.3
		c-0.3,0.1-0.7,0.1-1,0.2c-0.7,0.1-1.1,0.5-1.3,1.1c-0.1,0.6-0.2,1.2-0.3,1.8c0,0.5,0,1,0,1.5c0,4.3,0,8.7,0,13
		c0,0.8,0.1,1.6,0.2,2.5c0,0.3,0.1,0.5,0.2,0.8c0.1,0.4,0.4,0.7,0.9,0.8c0.4,0.1,0.9,0.2,1.3,0.2c1.5,0,2.9,0,4.4,0
		c0.1,0,0.2,0,0.3,0c1.2-0.1,2.1-0.6,2.4-1.9C316,129.1,316.2,128.6,316.4,128z"/>
	<path class="st0" d="M160,150.4c0.5-0.3,1-0.5,1.5-0.5c0.8,0,1.4,0.3,1.8,0.9c0.8,1.2,0.6,2.9-0.6,3.8c-0.4,0.3-0.8,0.5-1.3,0.5
		c-0.5,0-0.9,0-1.4,0c-0.2,1-0.2,2.5,0.1,3.2c-0.2,0-0.4,0-0.6,0c-0.2,0-0.4,0-0.7,0c0.1-0.2,0.2-0.4,0.2-0.6c0-0.2,0-0.3,0-0.5
		c0-1.9,0-3.9,0-5.8c0-0.5,0-1-0.6-1.3C159.1,150,159.6,150,160,150.4z M159.9,150.7c0,0.3-0.1,0.6-0.1,0.8c0,0.8,0,1.6,0,2.3
		c0,1.1,0.1,1.1,1.2,1.1c0.9,0,1.5-0.4,1.9-1.3c0.2-0.6,0.2-1.2,0.1-1.8c-0.3-1-1.2-1.6-2.2-1.4
		C160.5,150.5,160.2,150.6,159.9,150.7z"/>
	<path class="st0" d="M81.7,152.3c6.4,0,12.7,0,19.1,0c0,0,0.1,0.1,0.1,0.1c0,0-0.1,0.1-0.1,0.1c-6.3,0-12.6,0-18.9,0
		c-0.1,0-0.2-0.1-0.3-0.1C81.7,152.4,81.7,152.3,81.7,152.3z"/>
	<path class="st0" d="M329.9,152.3c0.2,0,0.3,0,0.5-0.1c4.9-0.1,17.8-0.1,18.8,0.1c-0.1,0.1-0.2,0.2-0.2,0.2c-0.2,0-0.5,0-0.7,0
		c-5.8,0-11.6,0-17.4,0c-0.3,0-0.6,0-0.9,0C329.9,152.5,329.9,152.4,329.9,152.3z"/>
	<path class="st0" d="M209.6,146.4c0.6,0,1,0,1.4,0c0,0.4,0,0.7,0,1.1c0,2.1,0,4.2,0,6.4c0,0.4-0.1,0.9,0.5,1.3c-0.6,0-1.1,0-1.5,0
		c0.3-0.6,0.3-0.6,0.3-1.1c0-2.1,0-4.2,0-6.3C210.2,147.2,210.3,146.7,209.6,146.4z"/>
	<path class="st0" d="M291.9,146.3c0.5,0,0.8,0,1.2,0c0.2,0.4,0.1,0.7,0.1,1c0,2.1,0,4.2,0,6.4c0,0.4-0.1,0.9,0.4,1.3
		c-0.5,0.1-1,0-1.5,0.1c0.1-0.2,0.2-0.3,0.3-0.5c0.1-0.2,0.1-0.3,0.1-0.5c0-2.2,0-4.3,0-6.5C292.5,147.1,292.3,146.7,291.9,146.3z"
		/>
	<path class="st0" d="M299,155c-0.5,0-1,0-1.5,0c-0.1-0.2,0.1-0.2,0.1-0.3c0-0.1,0.1-0.2,0.1-0.4c0-0.1,0-0.3,0-0.4
		c0-2.1,0-4.3,0-6.4c0-0.5-0.1-0.9-0.7-1.2c0.6-0.1,0.9-0.1,1.4,0c0,0.4,0,0.7,0,1.1c0,2.1,0,4.3,0,6.4
		C298.6,154.5,298.6,154.5,299,155z"/>
	<path class="st0" d="M269.6,154.2c-0.7,0.9-1.5,1.2-2.5,0.9c-0.9-0.3-1.5-1-1.6-1.9c-0.1-0.4-0.1-0.8,0-1.2
		c0.3-1.4,1.5-2.2,3.1-1.9c0.4,0.1,0.8,0.3,1,0.7c0.2,0.3,0.4,0.7,0.3,1.2c-1.2,0.2-2.4-0.1-3.6,0.1c-0.2,1,0.1,1.8,0.9,2.4
		C268,155,268.9,154.7,269.6,154.2z M269.1,151.7c0.1-0.5,0-0.9-0.3-1.2c-0.2-0.2-0.5-0.3-0.8-0.3c-0.4,0-0.7,0.1-0.9,0.4
		c-0.3,0.3-0.6,0.7-0.5,1.1C267.3,151.8,268.1,151.8,269.1,151.7z"/>
	<path class="st0" d="M306.8,154.2c-0.6,0.9-1.4,1.1-2.4,0.9c-0.9-0.2-1.5-0.9-1.7-1.8c-0.1-0.4-0.1-0.9,0-1.3
		c0.3-1.3,1.4-2.2,3.1-1.9c0.4,0.1,0.8,0.3,1,0.7c0.2,0.3,0.4,0.7,0.3,1.2c-1.2,0.2-2.4,0-3.6,0.1c-0.2,1,0,1.8,0.9,2.4
		C305.2,155,306,154.7,306.8,154.2z M306.2,151.6c0-1-0.3-1.4-1-1.5c-0.4,0-0.7,0.1-1,0.3c-0.4,0.3-0.6,0.7-0.7,1.2
		c0.2,0,0.3,0.1,0.4,0.1c0.6,0,1.3,0,1.9,0C306.1,151.8,306.1,151.7,306.2,151.6z"/>
	<path class="st0" d="M288.1,154.2c-0.7,0.9-1.4,1-2.2,0.9c-0.8-0.1-1.4-0.5-1.7-1.3c-0.4-0.9-0.4-1.7,0-2.6
		c0.7-1.3,1.7-1.5,2.9-1.3c0.4,0.1,0.7,0.3,0.9,0.6c0.3,0.3,0.3,0.5,0.4,1.3c-0.6,0.2-1.2,0.1-1.8,0.1c-0.6,0-1.2,0-1.7,0
		c-0.2,0.4-0.1,0.8-0.1,1.1c0.1,0.4,0.3,0.8,0.7,1.1C286.1,154.8,286.8,154.8,288.1,154.2z M287.5,151.7c0.1-0.7-0.1-1.2-0.6-1.4
		c-0.4-0.2-0.9-0.2-1.3,0.1c-0.4,0.3-0.8,0.7-0.7,1.4C285.8,151.8,286.6,151.8,287.5,151.7z"/>
	<path class="st0" d="M139.4,152c-0.1,2.2,1,3.1,3.2,2.4c-0.3,0.4-0.6,0.6-1,0.7c-1.9,0.4-3-0.9-3.1-2.2c0-0.6,0-1.2,0.3-1.7
		c0.7-1.2,1.8-1.4,2.9-1.2c0.8,0.2,1.3,0.9,1.2,1.9C141.8,152.1,140.6,151.9,139.4,152z M142.2,151.6c-0.2-1.1-0.5-1.5-1.3-1.4
		c-0.4,0-0.7,0.2-0.9,0.4c-0.3,0.3-0.5,0.6-0.5,1.1C140.3,151.9,141.4,151.8,142.2,151.6z"/>
	<path class="st0" d="M260.1,150.1c0.4,0,0.8,0,1.1,0c0,0.2,0.1,0.3,0.1,0.5c0,1.8,0,3.6,0,5.4c0,0.4-0.1,0.8-0.2,1.1
		c-0.1,0.4-0.4,0.8-0.9,1c0.4-1,0.3-1.9,0.3-2.8c0-1.3,0-2.7,0-4C260.6,150.7,260.6,150.7,260.1,150.1z"/>
	<path class="st0" d="M200.2,153.1c-0.5,1.3-0.9,2.6-1.4,3.9c-0.1,0.4-0.3,0.8-0.5,1.1c-0.3,0.4-0.7,0.6-1.2,0.5
		c-0.1,0-0.2-0.1-0.2-0.2c0-0.1,0.1-0.3,0.2-0.3c0.1-0.1,0.3-0.1,0.5-0.1c0.5-0.1,0.8-0.4,1-0.8c0.1-0.4,0.3-0.8,0.4-1.2
		c0.1-0.2,0.1-0.5,0-0.7c-0.5-1.4-1.1-2.8-1.6-4.2c-0.1-0.3-0.3-0.6-0.5-0.9c0.2-0.1,0.4,0,0.7,0c0.2,0,0.5,0,0.7,0
		c0,0.3-0.1,0.6,0,0.8c0.3,1.2,0.7,2.3,1.3,3.5c0.4-0.3,0.3-0.7,0.5-1C200,153.2,200.1,153.1,200.2,153.1
		C200.3,153.1,200.2,153.1,200.2,153.1z"/>
	<path class="st0" d="M320.3,154.2c-0.3,0.9-0.6,1.7-1,2.6c-0.2,0.4-0.3,0.8-0.6,1.2c-0.2,0.4-0.6,0.6-1.1,0.6
		c-0.1,0-0.2-0.1-0.3-0.2c-0.1-0.1,0.1-0.4,0.2-0.4c1,0,1.3-0.6,1.6-1.4c0.2-0.7,0.2-1.2,0-1.9c-0.4-0.9-0.7-1.8-1-2.7
		c-0.3-0.6-0.6-1.2-0.8-1.9c0.4,0,0.8,0,1.3,0c0,0.2-0.1,0.4-0.1,0.6c0,0.2,0.1,0.4,0.2,0.6c0.3,0.9,0.6,1.8,1,2.7
		c0,0.1,0.1,0.2,0.1,0.2C320,154.2,320.2,154.2,320.3,154.2C320.3,154.2,320.3,154.2,320.3,154.2z"/>
	<path class="st0" d="M110.9,150.3c0,0.3,0,0.5,0,0.8c-0.1,0-0.2,0-0.2-0.1c-0.2-0.2-0.3-0.4-0.5-0.5c-0.6-0.6-1.5-0.5-2.1,0.1
		c-0.1,0.1-0.2,0.3-0.3,0.4c-0.4,0.8-0.5,1.6-0.2,2.4c0.4,1.1,1.5,1.6,2.6,1.1c0.1,0,0.2-0.1,0.3-0.1c0.1,0,0.1,0,0.2,0
		c-0.3,0.5-0.8,0.7-1.4,0.8c-0.7,0-1.3-0.1-1.8-0.5c-0.8-0.6-1.1-1.9-0.7-2.9c0.3-1.1,1.2-1.7,2.3-1.7
		C109.7,149.9,110.3,150.1,110.9,150.3z"/>
	<path class="st0" d="M134.6,154.9c0,0.3-0.3,0.3-0.4,0.3c-0.8,0.2-1.3-0.2-1.4-0.9c-0.1-0.3-0.1-0.7-0.1-1c0-0.9,0-1.8,0-2.8
		c-0.2-0.1-0.4-0.2-0.6-0.3c0.4-0.4,0.8-0.7,1.2-1.1c0.2,0.3,0.1,0.7,0.3,0.9c0.4,0.2,1,0,1.7,0.2c-0.7,0-1.2,0.1-1.7,0.1
		c0,0.2-0.1,0.4-0.1,0.6c0,0.8,0,1.6,0,2.4C133.4,154.5,133.5,154.6,134.6,154.9L134.6,154.9z"/>
	<path class="st0" d="M226.1,152.1c0.2-0.2,0.4-0.4,0.6-0.5c0,0,0.1,0,0.1,0.1c-0.1,0.2-0.3,0.5-0.5,0.8c0.7,0.9,1.3,1.8,2,2.6
		c-0.2,0.1-0.4,0-0.6,0.1c-0.2,0-0.5,0-0.7,0c0.1-0.6,0.1-0.7-0.2-1.1c-0.2-0.3-0.5-0.7-0.8-1c-0.1-0.1-0.3-0.1-0.4-0.1
		c0.2-0.6-0.4-0.9-0.6-1.3c-0.2-0.4-0.6-0.8-0.9-1.1c-0.1-0.1-0.2-0.2-0.4-0.4c0.5,0,1,0,1.4,0c0,0.2,0,0.5,0.1,0.7
		c0.1,0.2,0.2,0.4,0.4,0.6C225.8,151.6,225.9,151.8,226.1,152.1z"/>
	<path class="st0" d="M248.9,157.1c0.1-0.4,0.2-0.8,0.3-1.2c0.1-0.3,0.1-0.5,0-0.8c-0.5-1.4-1-2.8-1.6-4.1c-0.1-0.3-0.4-0.6-0.6-1
		c0.5,0,0.9,0,1.3,0c0,0.4,0,0.7,0.1,1c0.3,1.1,0.7,2.1,1.1,3.2c0.2,0,0.3,0,0.4,0.1c0,0,0,0,0,0c0,0.2,0,0.3,0,0.5
		c-0.3,0.7-0.5,1.5-0.8,2.2C249,157,248.9,157.1,248.9,157.1C248.8,157.1,248.9,157.1,248.9,157.1z"/>
	<path class="st0" d="M151.4,151.3c-0.1,0.1-0.2,0.2-0.2,0.4c0,0.9,0,1.8,0,2.6c0,0.2,0.2,0.5,0.3,0.7c-0.5,0-0.9,0-1.3,0
		c0.1-0.3,0.2-0.7,0.2-1c0-0.8,0-1.6,0-2.3c0-0.1,0-0.2,0-0.3c-0.2-1-1.1-1.4-1.9-0.7c-0.1,0.1-0.2,0.3-0.3,0.4l0,0
		c-0.1-0.3,0-0.5,0.2-0.7c0.7-0.8,2.1-0.5,2.5,0.3C151,150.9,151.2,151.1,151.4,151.3C151.4,151.3,151.4,151.3,151.4,151.3z"/>
	<path class="st0" d="M186.2,154.6c0.2,0.1,0.4,0.1,0.6,0.2c0,0.1-0.1,0.2-0.2,0.2c-0.5,0.2-0.9,0.2-1.2-0.3
		c-0.1-0.1-0.2-0.2-0.2-0.3c0.1-0.7,0.2-1.3,0.1-2c0-0.2,0-0.3,0-0.5c0.1-1-0.5-1.6-1.5-1.5c-0.1,0-0.3,0.1-0.4,0.1
		c-0.1,0-0.2,0-0.3,0c0.6-0.7,1.2-0.6,1.9-0.4c0.6,0.2,1,0.7,1.1,1.4c0,0.6,0,1.3,0,1.9C186.2,153.8,186.2,154.2,186.2,154.6z"/>
	<path class="st0" d="M128.5,155.1c-0.6,0-1.1,0-1.6,0c0.1-0.2,0.2-0.3,0.3-0.4c0.1-0.2,0.1-0.3,0.1-0.5c0-0.8,0-1.6,0-2.5
		c0-0.2,0-0.3-0.1-0.5c-0.1-0.5-0.5-0.8-1.1-0.8c-0.3,0-0.6,0.1-1,0.1c0.5-0.6,1.1-0.6,1.7-0.5c0.6,0.1,0.9,0.6,1.1,1.1
		c0.1,0.3,0.1,0.5,0.1,0.8c0,0.7,0,1.4,0,2.2C128.1,154.5,128.1,154.5,128.5,155.1z"/>
	<path class="st0" d="M312.4,155c-0.5,0-0.9,0-1.4,0c0.3-0.6,0.3-0.6,0.3-1.2c0-0.9,0-1.7,0-2.6c0-0.6,0-0.6-0.5-1.2
		c0.4-0.1,0.7-0.1,1.1,0c0.1,0.6,0.2,1.2,0.1,1.8c-0.1,0.7-0.1,1.5,0,2.2C312.1,154.5,312.3,154.7,312.4,155z"/>
	<path class="st0" d="M148.3,151.1c-0.3,0.3-0.3,0.6-0.3,0.9c0,0.7,0,1.4,0,2c0,0.4,0,0.4,0.4,0.9c-0.5,0-1,0-1.5,0
		c0.1-0.2,0.2-0.3,0.3-0.5c0.1-0.2,0.1-0.3,0.1-0.5c0-0.9,0-1.8,0-2.7c0-0.6,0-0.6-0.4-1.3c0.3,0,0.7,0,1,0
		C148,150.5,147.9,150.9,148.3,151.1C148.3,151.1,148.3,151.1,148.3,151.1z"/>
	<path class="st0" d="M190.6,150.1c0.3,0,0.7,0,1.1,0c0,0.6,0.2,1.2,0.1,1.8c-0.1,0.7,0,1.5,0,2.3c0,0.3,0,0.3,0.4,0.8
		c-0.5,0.1-1,0-1.6,0c0.1-0.2,0.2-0.3,0.3-0.4c0.1-0.2,0.1-0.3,0.1-0.5c0-1,0-2,0-3C190.9,150.7,190.9,150.7,190.6,150.1z"/>
	<path class="st0" d="M123.4,155c0.5-0.3,0.6-0.6,0.6-1c0-0.8,0-1.6,0-2.5c0-0.8,0-0.8-0.4-1.5c0.3,0,0.7,0,1,0
		c0.1,0.3,0.2,0.5,0.3,0.8c0,0.1,0.1,0.3,0,0.4c-0.2,0.9-0.1,1.9-0.1,2.8c0,0.3,0.2,0.6,0.3,0.9C124.5,155,124,155,123.4,155z"/>
	<path class="st0" d="M235,150.1c0.5-0.1,0.8-0.1,1.2,0.1c0,0.3,0,0.5,0,0.7c0,1.1,0,2.1,0,3.2c0,0.4,0.1,0.7,0.7,1
		c-0.6,0-0.9,0-1.3,0c-0.2-0.6-0.3-1.1-0.2-1.7c0.1-0.8,0-1.6,0-2.4C235.5,150.6,235.3,150.4,235,150.1z"/>
	<path class="st0" d="M218.8,153.9c0.3-0.2,0.3-0.5,0.3-0.7c0-0.7,0-1.4,0-2c0-0.4-0.1-0.7-0.5-1c0.4-0.1,0.8-0.1,1.2,0
		c0,0.3,0.1,0.5,0.1,0.8c0,1.1,0,2.1,0,3.2c0,0.5,0,0.5,0.6,0.9c-0.4,0-0.8,0-1.1,0C219,154.7,219.2,154.2,218.8,153.9L218.8,153.9z
		"/>
	<path class="st0" d="M218.5,154.7c-1.2,0.9-2.5,0.4-2.7-1c0-0.3,0-0.6,0-0.9c0-0.4,0-0.8,0-1.2c0-0.8,0-0.8-0.4-1.6
		c0.4,0,0.7,0,1.1,0.1c0,0.4,0,0.7,0,1.1c0,0.7,0,1.4,0,2c0,0.2,0,0.5,0.1,0.7c0.1,0.6,0.5,0.9,1.1,0.9c0.1,0,0.3,0,0.4-0.1
		C218.1,154.7,218.3,154.7,218.5,154.7z"/>
	<path class="st0" d="M276.8,152c0.2-0.4,0.2-0.7,0-1.1c-0.1-0.3-0.3-0.5-0.5-0.8c0.4,0,0.8,0,1.2,0c0.2,0.1,0,0.3,0,0.4
		c0,0.2,0,0.3,0.1,0.5c0.4,1,0.8,2,1.1,2.9c0.5-0.1,0.3-0.7,0.6-0.8l0,0c-0.1,0.9-0.3,1.5-0.7,2.1c-0.4-0.5-0.5-1.1-0.7-1.6
		c-0.2-0.5-0.4-1.1-0.7-1.5C277,152,276.9,151.9,276.8,152L276.8,152z"/>
	<path class="st0" d="M235,154.7c-0.7,0.7-1.3,0.7-2,0.4c-0.6-0.3-0.8-0.8-0.9-1.4c0-0.7,0-1.4,0-2.1c0-0.5,0-0.9-0.5-1.4
		c0.4-0.1,0.8-0.1,1.2,0c0,0.4,0,0.7,0,1c0,0.6,0,1.3,0,1.9c0,0.2,0,0.5,0.1,0.7c0.1,0.7,0.5,1,1.2,1
		C234.4,154.8,234.6,154.7,235,154.7z"/>
	<path class="st0" d="M154.8,155c-0.5,0-1,0-1.5,0c0.3-0.5,0.3-1.1,0.3-1.6c0-0.5,0-1,0-1.4c0-0.2,0-0.5-0.1-0.7
		c-0.1-0.8-0.5-1-1.3-0.9c-0.2,0-0.3,0.1-0.6,0.1c0.4-0.6,0.9-0.6,1.4-0.6c0.5,0.1,0.9,0.3,1.1,0.8c0.1,0.3,0.2,0.7,0.2,1
		c0,0.7,0,1.5,0,2.2C154.4,154.5,154.4,154.5,154.8,155z"/>
	<path class="st0" d="M276,153.9c0,0.4-0.2,0.9-0.5,1.3c-0.5-0.9-0.7-1.8-1-2.6c-0.3-0.8-0.6-1.7-1.3-2.5c0.5,0,0.9,0,1.3,0
		c0,0.6,0,0.6,0.2,1.2c0.3,0.7,0.5,1.4,0.8,2.1C275.6,153.7,275.8,153.8,276,153.9L276,153.9z"/>
	<path class="st0" d="M177.3,150.2c0.1,0.7,0.2,1.4,0.1,2.2c-0.1,0.5,0,1,0,1.5c0,0.6,0,0.6,0.4,1.2c-0.5,0-1,0-1.4,0
		c0.3-0.6,0.3-0.6,0.4-1.1c0-0.9,0-1.7,0-2.6c0-0.4,0-0.9-0.5-1.3C176.6,150,177,150,177.3,150.2z"/>
	<path class="st0" d="M241.8,150.1c0.1,0.8,0.2,1.5,0.1,2.2c-0.1,0.5,0,1,0,1.5c0,0.6,0,0.6,0.4,1.2c-0.5,0-1,0-1.4,0
		c0.3-0.6,0.3-0.6,0.4-1.1c0-0.9,0-1.7,0-2.6c0-0.4,0-0.9-0.5-1.2C241.1,150,241.4,150,241.8,150.1z"/>
	<path class="st0" d="M116.9,155c0.1,0,0.2,0.1,0.3,0.1c0.6-0.1,1.2-0.4,1.4-1.1c0.4-1,0.4-2.1-0.1-3.1c-0.2-0.4-0.6-0.7-1-0.9
		c0.7,0,1.2,0.3,1.6,0.8c0.8,1,0.8,2.6,0,3.5c-0.5,0.6-1.1,0.9-1.9,0.9C117.1,155.2,117,155,116.9,155L116.9,155z"/>
	<path class="st0" d="M170,154.9c-0.1,0.1-0.2,0.3-0.4,0.3c-1.3-0.2-2.2-1-2.3-2.2c-0.2-1.4,0.4-2.5,1.6-2.9
		c0.1-0.1,0.3-0.1,0.4-0.1c0.1,0,0.1,0,0.2,0.1c-1,0.4-1.3,1.2-1.4,2.2c0,0.6,0,1.2,0.3,1.7c0.3,0.6,0.7,1,1.4,1.1
		C169.8,155.1,169.9,155,170,154.9L170,154.9z"/>
	<path class="st0" d="M170,154.9c0.6,0.1,1-0.3,1.2-0.7c0.6-1.2,0.5-2.3-0.1-3.4c-0.2-0.3-0.5-0.5-0.8-0.8c0.2-0.1,0.5,0,0.7,0.1
		c1,0.5,1.4,1.3,1.4,2.3c0,1-0.3,1.9-1.2,2.4C170.8,155.1,170.4,155.2,170,154.9C170,154.9,170,154.9,170,154.9z"/>
	<path class="st0" d="M116.9,154.9c-0.3,0.2-0.6,0.2-1,0c-0.8-0.4-1.2-1-1.4-1.8c-0.3-1.3,0.4-2.6,1.6-3.1c0.1-0.1,0.3-0.1,0.5,0
		c-0.7,0.4-1.1,1-1.3,1.7c-0.2,0.9-0.1,1.7,0.4,2.5C116,154.6,116.3,155,116.9,154.9C116.9,155,116.9,154.9,116.9,154.9z"/>
	<path class="st0" d="M184.8,154.7c-0.3,0.4-0.7,0.4-1,0.4c-0.3,0-0.5-0.1-0.8-0.3c-0.7-0.4-0.7-1.4-0.1-2c0.4-0.4,1-0.7,1.8-0.7
		c-0.4,0.2-0.6,0.3-0.9,0.4c-0.4,0.2-0.6,0.6-0.6,1c0,0.6,0.3,1,1,1.1C184.4,154.8,184.6,154.7,184.8,154.7z"/>
	<path class="st0" d="M200.3,152.4c0.1-0.4,0.2-0.9,0.3-1.3c0.1-0.3,0.2-0.7-0.1-1c0.4,0,0.7,0,0.9,0c-0.3,0.7-0.6,1.3-0.9,2
		C200.6,152.2,200.5,152.4,200.3,152.4L200.3,152.4z"/>
	<path class="st0" d="M320.5,152.8c0.2-0.6,0.4-1.2,0.6-1.8c0.1-0.2,0-0.5,0-0.8c0.2,0,0.5,0,0.9,0c-0.6,0.8-0.8,1.6-1.1,2.4
		C320.8,152.6,320.7,152.8,320.5,152.8L320.5,152.8z"/>
	<path class="st0" d="M313.8,150.9c-0.2-0.1-0.4-0.2-0.6-0.2c-0.2,0-0.4,0-0.6,0c-0.1-0.3,0.2-0.4,0.4-0.6c0.1-0.1,0.3-0.2,0.5-0.2
		c0.3,0,0.5,0.1,0.6,0.3C314.2,150.5,314.2,150.7,313.8,150.9z"/>
	<path class="st0" d="M250.7,152c0.1-0.3,0.1-0.6,0.2-0.9c0-0.3,0-0.7,0-1.1c0.2-0.2,0.5,0.1,0.8-0.1c0,0.1,0,0.2,0,0.2
		c-0.2,0.4-0.4,0.8-0.7,1.2C250.9,151.6,251,151.9,250.7,152L250.7,152z"/>
	<path class="st0" d="M248.8,157.1c0.1,0.5-0.2,0.8-0.5,1.1c-0.2,0.2-0.5,0.3-0.9,0.3c-0.1,0-0.3-0.1-0.3-0.2
		c-0.1-0.2,0.1-0.4,0.2-0.4C248,157.9,248.5,157.6,248.8,157.1C248.9,157.1,248.8,157.1,248.8,157.1z"/>
	<path class="st0" d="M192.1,150.7c0.3-0.3,0.5-0.5,0.8-0.7c0.3-0.2,0.7-0.1,0.9,0.3c0.1,0.1,0,0.3,0,0.5c-0.1,0.2-0.3,0.2-0.4,0.1
		c-0.2-0.1-0.3-0.2-0.5-0.2C192.6,150.6,192.5,150.7,192.1,150.7z"/>
	<path class="st0" d="M242.4,150.7c0.2-0.3,0.4-0.6,0.7-0.7c0.3-0.1,0.6,0,0.7,0.2c0.2,0.2,0.2,0.5-0.1,0.8
		c-0.2-0.1-0.4-0.2-0.6-0.2C242.9,150.7,242.7,150.7,242.4,150.7z"/>
	<path class="st0" d="M177.8,150.9c0.2-0.6,0.5-0.8,0.8-0.9c0.3-0.1,0.6,0,0.7,0.2c0.1,0.2,0.1,0.4,0,0.6c-0.1,0.2-0.3,0.2-0.5,0.1
		C178.6,150.7,178.3,150.5,177.8,150.9z"/>
	<path class="st0" d="M279.5,152.4c0.1-0.5,0.2-0.9,0.3-1.4c0-0.3,0-0.6,0-0.9c0.2,0,0.4,0,0.6,0c0,0.1,0.1,0.1,0.1,0.2
		c-0.4,0.6-0.5,1.2-0.8,1.9C279.6,152.3,279.6,152.4,279.5,152.4C279.4,152.4,279.5,152.4,279.5,152.4z"/>
	<path class="st0" d="M260.9,148.6c-0.3,0-0.5-0.2-0.5-0.5c0-0.3,0.2-0.6,0.5-0.6c0.3,0,0.5,0.2,0.5,0.5
		C261.4,148.3,261.2,148.6,260.9,148.6z"/>
	<path class="st0" d="M227.2,151.2c0-0.4,0-0.7,0.1-1.1c0.3,0,0.6,0,1,0C227.9,150.4,227.6,150.8,227.2,151.2z"/>
	<path class="st0" d="M224.6,154.3c0,0.3,0.1,0.5,0.1,0.8c-0.3,0-0.7,0-1.2,0C224,154.8,224.2,154.4,224.6,154.3L224.6,154.3z"/>
	<path class="st0" d="M250.7,152c0,0.2,0,0.4-0.1,0.6c-0.3,0.6-0.3,1.2-0.7,1.7c0,0,0,0,0,0C250,153.5,250.3,152.7,250.7,152
		C250.7,152,250.7,152,250.7,152z"/>
	<path class="st0" d="M276.2,153.5c-0.1-0.4,0.2-0.7,0.4-1c0,0,0,0,0,0C276.7,152.8,276.4,153.1,276.2,153.5
		C276.2,153.4,276.2,153.5,276.2,153.5z"/>
	<path class="st0" d="M224.6,154.3c0-0.3,0.2-0.5,0.6-0.8C225,153.9,224.9,154.2,224.6,154.3C224.6,154.3,224.6,154.3,224.6,154.3z"
		/>
	<path class="st0" d="M214.8,83.3c-0.3,0.4-0.7,0.3-1,0.2c0,0,0,0,0,0C214.1,83.4,214.5,83.5,214.8,83.3
		C214.8,83.3,214.8,83.3,214.8,83.3z"/>
	<path class="st0" d="M216.8,82.9c0-0.1,0.1-0.2,0.1-0.3c0,0,0,0,0.1,0C216.8,82.7,216.8,82.8,216.8,82.9L216.8,82.9z"/>
	<path class="st0" d="M221,15.9c0-0.1,0-0.2,0-0.3c0,0,0,0,0,0C221,15.7,221,15.8,221,15.9C221,15.9,221,15.9,221,15.9z"/>
	<path class="st0" d="M200.3,152.4c0.2,0.3,0,0.5-0.1,0.7c0,0,0,0,0,0C200.1,152.9,200.1,152.6,200.3,152.4
		C200.3,152.4,200.3,152.4,200.3,152.4z"/>
	<path class="st0" d="M279.3,153.1c0-0.2,0-0.5,0.1-0.7c0,0,0,0,0,0C279.5,152.6,279.5,152.9,279.3,153.1
		C279.3,153.1,279.3,153.1,279.3,153.1z"/>
	<path class="st0" d="M320.5,152.7c0.2,0.4,0.1,0.5-0.2,0.6l0,0C320.4,153.2,320.5,153,320.5,152.7
		C320.5,152.8,320.5,152.7,320.5,152.7z"/>
	<path class="st0" d="M320.3,153.4c0,0.3,0,0.5,0,0.8c0,0,0,0,0,0C320.1,153.9,320.1,153.7,320.3,153.4
		C320.3,153.4,320.3,153.4,320.3,153.4z"/>
	<path class="st0" d="M215.4,83.1c-0.2,0.3-0.4,0.2-0.7,0.2c0,0,0,0,0,0C215,83.3,215.3,83.3,215.4,83.1L215.4,83.1z"/>
	<path class="st0" d="M151.4,151.3c0-0.1-0.1-0.1-0.1-0.2c0,0,0-0.1,0-0.1c0,0,0.1,0,0.1,0.1C151.4,151.2,151.4,151.3,151.4,151.3
		C151.4,151.3,151.4,151.3,151.4,151.3z"/>
	<path class="st0" d="M276.7,151.9c0.1,0.2,0.2,0.4-0.2,0.5c0,0,0,0,0,0C276.6,152.3,276.7,152.1,276.7,151.9
		C276.8,152,276.7,151.9,276.7,151.9z"/>
	<path class="st0" d="M276,153.9c0-0.2-0.1-0.4,0.2-0.4c0,0,0,0,0,0C276.1,153.6,276.1,153.7,276,153.9
		C276,153.9,276,153.9,276,153.9z"/>
	<path class="st0" d="M218.8,153.9c0,0,0,0.1,0,0.1C218.7,154,218.8,154,218.8,153.9C218.8,153.9,218.8,153.9,218.8,153.9z"/>
	<path class="st0" d="M134.6,154.9c0,0,0.1-0.1,0.1-0.1C134.8,154.9,134.7,154.9,134.6,154.9C134.6,154.9,134.6,154.9,134.6,154.9z"
		/>
	<path class="st0" d="M215.5,83.1c0,0,0.1,0,0.1,0.1C215.6,83.1,215.6,83.1,215.5,83.1C215.5,83.1,215.5,83.1,215.5,83.1
		C215.4,83.1,215.5,83.1,215.5,83.1z"/>
	<path class="st0" d="M216.7,82.9c0,0-0.1,0-0.1,0C216.6,82.8,216.6,82.9,216.7,82.9C216.7,82.9,216.7,82.9,216.7,82.9
		C216.8,82.9,216.7,82.9,216.7,82.9z"/>
</g>
</svg>
