<?xml version="1.0" encoding="utf-8"?>
<!-- Generator: Adobe Illustrator 24.0.0, SVG Export Plug-In . SVG Version: 6.00 Build 0)  -->
<svg version="1.1" id="Layer_1" xmlns="http://www.w3.org/2000/svg" xmlns:xlink="http://www.w3.org/1999/xlink" x="0px" y="0px"
	 width="786.7px" height="127px" viewBox="0 0 786.7 127" style="enable-background:new 0 0 786.7 127;" xml:space="preserve">
<style type="text/css">
	.st0{fill:#212121;}
</style>
<g>
	<g>
		<path class="st0" d="M20.9,103.7c13.2-31,26.4-62.1,39.6-93.1c12.7,31,25.4,62.1,38,93.1c1.2,3.3,3.7,5.9,6.4,8.2
			c-6.9-0.2-13.9-0.1-20.8,0c1.1-2.1,3-4.2,1.9-6.8c-2.6-8-6.3-15.5-9.3-23.3c-13.4,0-26.9,0-40.3,0c-3.1,7.9-6.9,15.5-9.7,23.5
			c-1.2,2.5,0.9,4.6,2.1,6.6c-4.8-0.2-9.6-0.2-14.4,0C17.2,109.6,19.6,107,20.9,103.7z M57.1,33.6c-6,14.2-12,28.4-18,42.6
			c11.8,0,23.5,0,35.3,0C68.6,62,62.8,47.8,57.1,33.6z"/>
	</g>
	<path class="st0" d="M214.1,19.3c11.7-9.7,30.3-10.1,42.4-0.9c0.8,4.8,0.2,9.8,0.5,14.6c-2.7-5.3-6.1-10.6-11.8-13.1
		c-7.5-3.5-17.9-3.9-24,2.6c-5.9,6.2-4.9,17.1,1.8,22.3c10,7.7,22.3,11.9,31.9,20.1c12.6,11.7,9.2,34.7-5.3,43.3
		c-13.9,8.5-32.3,5.8-45-3.7c0-5.9,0-11.9-0.1-17.8c3.2,6.7,7.3,13.5,13.9,17.3c8.1,5,19.7,5.3,27.1-1.2c5.8-5,6.8-14.1,3-20.6
		c-9.2-14.6-29.9-15.8-39.1-30.5C202.9,41.6,204.8,26.9,214.1,19.3z"/>
	<g>
		<path class="st0" d="M269.8,103.8c13.2-31,26.3-62.1,39.6-93.1c11.4,27.7,22.7,55.5,34,83.2c2.7,6.4,4.4,13.8,10.5,18
			c-7-0.2-14-0.2-21,0c1.2-2.1,3.2-4.3,2-6.9c-2.6-8-6.3-15.5-9.3-23.3c-13.5,0-26.9-0.1-40.4,0.1c-3,7.9-6.8,15.5-9.6,23.5
			c-1.3,2.5,1,4.6,2.2,6.7c-4.9-0.2-9.7-0.2-14.6,0C266,109.7,268.5,107.1,269.8,103.8z M288,76.2c11.8,0,23.5,0,35.3,0
			C317.5,62,311.8,47.8,306,33.6C299.9,47.8,294,62,288,76.2z"/>
	</g>
	<g>
		<path class="st0" d="M532.2,17.4c0.9-2.1,1.9-4.1,3.1-6c11.4,27.1,22.3,54.5,33.5,81.7c2.9,6.6,4.6,14.4,10.8,18.9
			c-7-0.2-13.9-0.2-20.9,0c1.1-2.1,3.1-4.3,2-6.8c-2.6-8-6.3-15.5-9.3-23.3c-13.5,0-26.9-0.1-40.4,0.1c-3,7.9-6.8,15.5-9.6,23.4
			c-1.3,2.6,0.9,4.7,2.2,6.7c-4.9-0.2-9.8-0.2-14.6,0c3-2.5,5.5-5.5,6.9-9.2C508,74.3,520.2,45.9,532.2,17.4z M531.6,33.6
			c-6,14.2-12,28.4-18,42.6c11.8,0,23.5,0,35.3,0C543.2,62,537.4,47.8,531.6,33.6z"/>
	</g>
	<path class="st0" d="M112.5,13.3c5.3,0.1,10.6,0.1,15.9,0c-2.1,5.2-1.5,10.9-1.5,16.4c0,8.2,0,16.4,0,24.6c18.9,0,37.9,0,56.8,0
		c0-10.9,0-21.9,0-32.8c0.1-2.9-0.6-5.6-1.5-8.3c5.3,0.1,10.7,0.1,16,0c-1.1,2.6-1.9,5.4-1.7,8.2c0,27.4,0,54.7,0,82.1
		c-0.1,2.9,0.7,5.6,1.8,8.3c-5.4-0.1-10.7-0.1-16.1,0c2.2-5.3,1.6-11,1.6-16.5c0-11.8,0-23.7,0-35.5c-18.9,0-37.9,0-56.8,0
		c0,14.6,0,29.2,0,43.8c-0.1,2.8,0.7,5.6,1.6,8.3c-5.3-0.1-10.7-0.1-16,0c1-2.7,1.8-5.5,1.7-8.4c-0.1-27.4,0-54.7,0-82.1
		C114.3,18.6,113.4,15.9,112.5,13.3z"/>
	<path class="st0" d="M589.5,13.3c23.7,0,47.4,0,71.1,0c-19,31-37.9,62-56.9,93c14.1-0.1,28.2,0.2,42.3-0.1c5.6,0,9.2-4.8,12.6-8.6
		c-0.8,4.7-1.5,9.5-2.2,14.3c-23.8,0-47.7,0-71.5,0c19-31,38.2-62,57.2-93c-14.3,0.1-28.6-0.1-42.8,0.1c-5.3-0.1-8.8,4.5-11.9,8
		C588,22.4,588.7,17.9,589.5,13.3z"/>
	<path class="st0" d="M668.1,13.3c5.3,0,10.6,0,15.9,0c-0.9,2.7-1.4,5.5-1.4,8.3c0,24.1,0,48.3,0,72.4c0.1,6-0.7,12.2,1.4,18
		c-5.3-0.1-10.7-0.1-16,0c1.1-2.6,1.9-5.4,1.8-8.3c0-24.6,0-49.2,0-73.8C669.7,24.2,670.5,18.4,668.1,13.3z"/>
	<g>
		<path class="st0" d="M693.8,13.2c12.7,0.6,25.6-1.2,38.1,1.4c11,2.3,21.7,11.2,21.8,23.2c0.6,11.8-8.7,21.6-19.2,25.5
			c6.9,4.4,10.7,11.8,15.2,18.3c4.9,7.4,9.7,14.8,14.7,22.1c2.3,3.6,6,5.9,9.6,8.1c-7.8-0.6-18,2.1-23.3-5.3
			c-7.4-11.4-14.3-23-21.6-34.4c-2-2.9-4.5-6-8.1-6.5c-4.3-0.5-8.6-0.2-12.8-0.3c0,12.7,0,25.5,0,38.2c-0.1,2.9,0.7,5.6,1.6,8.3
			c-5.3-0.1-10.7-0.1-16,0c2.4-5.7,1.6-11.9,1.7-17.9c0-21.4,0-42.9,0-64.3C695.4,24.2,696,18.4,693.8,13.2z M708.1,18.8
			c0,13.9-0.1,27.9,0,41.9c7.9,1,16.5,0.8,23-4.3c10.2-6.7,13.3-23.7,3.5-32C727.3,18,717.1,18.8,708.1,18.8z"/>
	</g>
	<g>
		<path class="st0" d="M482,112.3c-3.6-4.1-2.4-10-2.6-15.2c0-25.1,0-50.1,0-75.2c-0.1-2.9,0.6-5.6,1.6-8.2c-2.9,0-5.8,0-8.7,0
			c1,2.6,1.7,5.4,1.6,8.3c-0.1,26.3,0,52.6-0.1,78.9l-10.3-14.3c-5.5-7.2-10.9-14.4-16.3-21.5c0-14.4,0-28.8,0-43.1
			c-0.1-2.9,0.6-5.6,1.6-8.2c-2.9,0-5.8,0-8.7,0c1,2.6,1.7,5.4,1.6,8.3c0,11.9,0,23.8,0,35.8c-0.7-0.9-1.3-1.8-2-2.6l-8.2-10.9
			C423.8,34,416.1,24,408.5,13.8c-4.9,0-9.8,0-14.7-0.1c0.9,1.8,2.4,3.3,2.4,5.4c0.2,7.1,0,14.1,0.1,21.2
			c-6.6-8.9-13.4-17.7-20-26.6c-4.9,0-9.8,0-14.7-0.1c3.6,4.1,2.4,10,2.6,15.2c0,25.1,0,50.1,0,75.2c0.1,2.9-0.6,5.6-1.6,8.2
			c2.9,0,5.8,0,8.7,0c-1-2.6-1.7-5.4-1.6-8.3c0.1-26.3,0-52.6,0.1-78.9c7.9,10.5,15.7,21.1,23.7,31.6c1.2,1.8,3,3.7,2.8,6.2
			c0.1,13.7,0,27.5,0.1,41.2c0.1,2.9-0.6,5.6-1.6,8.3c2.9-0.1,5.8-0.1,8.7,0c-2.1-4.7-1.6-10.1-1.6-15.1c0-9.8,0-19.5,0-29.3
			c9,12.4,18.3,24.5,27.4,36.8l5.8,7.5c4.9,0,9.8,0,14.7,0.1c-3.6-4.1-2.4-10-2.6-15.2c0-3.8,0-7.6,0-11.5
			c6.7,9,13.2,17.5,13.1,17.6l6.9,8.9c0,0,0,0,0,0C472.2,112.2,477.1,112.2,482,112.3z M441.6,100.9l-10.2-14.2l0-0.1
			c-8.9-11.7-17.8-23.5-26.7-35.2c-1.2-1.8-2.9-3.7-2.7-6.1c-0.2-6.7,0-13.4,0-20.1c9.6,12.9,19.3,25.5,28.7,38.6l6,7.7
			c0-0.6,0-0.3,0,0c1.4,2,3.1,4.3,5,6.8C441.6,85.7,441.6,93.3,441.6,100.9z"/>
	</g>
</g>
</svg>
