<?xml version="1.0" encoding="utf-8"?>
<!-- Generator: Adobe Illustrator 24.0.0, SVG Export Plug-In . SVG Version: 6.00 Build 0)  -->
<svg version="1.1" id="Layer_1" xmlns="http://www.w3.org/2000/svg" xmlns:xlink="http://www.w3.org/1999/xlink" x="0px" y="0px"
	 width="212.6px" height="59.3px" viewBox="0 0 212.6 59.3" style="enable-background:new 0 0 212.6 59.3;" xml:space="preserve">
<style type="text/css">
	.st0{clip-path:url(#SVGID_2_);}
</style>
<g>
	<defs>
		<rect id="SVGID_1_" x="0" width="212.6" height="59.3"/>
	</defs>
	<clipPath id="SVGID_2_">
		<use xlink:href="#SVGID_1_"  style="overflow:visible;"/>
	</clipPath>
	<g class="st0">
		<path d="M0.2,12.2C2.9,12,2.9,12,2.9,14.6c0,13.4,0,26.8,0,40.2c0,1.8,0,1.8,1.8,1.8c7.3,0,14.5,0,21.8,0c1.5,0,1.7,0.3,1.6,1.8
			c-0.1,0.6-0.4,0.9-1,0.9c-8.9,0-17.9,0-26.8-0.1C0.2,43.6,0.2,27.9,0.2,12.2z"/>
		<path d="M145,0.2c0,2.7,0.3,2.6-2.7,2.6c-10.7,0-21.3,0-32,0c-2.6,0-2.6,0-2.5-2.6C120.3,0.2,132.7,0.2,145,0.2z"/>
		<path d="M97.3,54.5c0.3-0.6,0.2-1.1,0.2-1.6c0-13.1,0-26.2,0-39.3c0-0.9,0.1-1.6,1.3-1.6c1,0,1.4,0.4,1.4,1.4
			c0,14.8,0,29.6,0,44.4c0,0.5,0.2,1.3-0.6,1.3c-0.9,0.1-1.9,0.4-2.6-0.6c-2.1-3-4.3-5.9-6.5-8.9c-7.9-10.9-15.8-21.7-23.7-32.6
			c-0.1-0.1-0.2-0.2-0.4-0.4c-0.3,0.5-0.2,1-0.2,1.4c0,13.2,0,26.4,0,39.5c0,0.9,0,1.6-1.3,1.6c-1.1,0-1.4-0.4-1.4-1.5
			c0-14.8,0-29.6,0-44.3c0-0.5-0.2-1.3,0.6-1.4c0.9-0.1,2-0.4,2.7,0.6c2.2,3.1,4.5,6.2,6.8,9.3c7.7,10.5,15.3,21.1,23,31.6
			C96.8,53.9,97,54.2,97.3,54.5z"/>
		<path d="M180.3,35.7c0-7.3,0-14.6,0-21.9c0-1.7,0-1.7,1.8-1.7c4,0,7.9,0,11.9,0c8,0.1,15.4,6.9,16.4,14.7c0.9,7.2-1.9,12.7-7.5,17
			c-0.7,0.6-0.6,0.9-0.2,1.5c3.1,4.2,6.1,8.4,9.1,12.6c0.2,0.3,0.8,0.7,0.5,1.1c-0.2,0.4-0.8,0.1-1.2,0.2c-1.1,0.2-1.8-0.3-2.5-1.2
			c-2.7-3.8-5.6-7.6-8.3-11.4c-0.6-0.8-1.1-1-2-0.6c-1.8,0.6-3.8,0.7-5.7,0.8c-2.6,0-5.2,0-7.8,0c-1.9,0-1.9,0-1.9,1.9
			c0,3.1,0,6.1,0,9.2c0,1-0.3,1.4-1.4,1.4c-1.1,0-1.4-0.4-1.3-1.4c0,0,0-0.1,0-0.1C180.3,50.5,180.3,43.1,180.3,35.7z M183,29.3
			c0,4.3,0,8.7,0,13c0,1.8,0,1.8,1.7,1.8c2.6,0,5.2,0,7.8,0c9.2,0,15.6-6.6,15.3-15.8c-0.2-6.8-6.2-13-12.9-13.6
			c-3.5-0.3-7-0.1-10.5-0.2c-1.1,0-1.4,0.4-1.4,1.5C183,20.5,183,24.9,183,29.3z"/>
		<path d="M152.5,35.6c0-7.2,0-14.5,0-21.7c0-1.7,0-1.7,1.7-1.7c5.5,0,10.9,0,16.4,0c1.5,0,1.7,0.2,1.6,1.6
			c-0.1,0.9-0.6,0.9-1.2,0.9c-3,0-6.1,0-9.1,0c-1.8,0-3.6,0-5.4,0c-1,0-1.3,0.4-1.3,1.3c0,5.7,0,11.4,0,17.1c0,1.1,0.4,1.3,1.4,1.3
			c4.7,0,9.4,0,14.1,0c1,0,1.6,0.2,1.5,1.4c0,1.1-0.4,1.4-1.4,1.4c-4.7,0-9.4,0-14.1,0c-1.1,0-1.5,0.3-1.5,1.5
			c0.1,5.6,0.1,11.1,0,16.7c0,1.1,0.4,1.4,1.5,1.4c4.7,0,9.3,0,14,0c1.5,0,2,0.7,1.5,2.1c-0.2,0.5-0.5,0.5-0.9,0.5
			c-5.9,0-11.8,0-17.7,0c-0.9,0-1-0.6-1-1.3c0-3.3,0-6.5,0-9.8C152.5,44.1,152.5,39.8,152.5,35.6z"/>
		<path d="M125.1,47.8c0-3.3,0-6.6,0-9.9c0-0.8-0.2-1.5-0.7-2.1c-5.3-7.4-10.5-14.9-15.8-22.4c-0.2-0.3-0.7-0.7-0.5-1.1
			c0.2-0.4,0.7-0.1,1.1-0.2c1.1-0.2,1.8,0.3,2.5,1.2c4.5,6.5,9.2,12.9,13.7,19.3c0.9,1.2,0.9,1.2,1.8-0.1
			c4.6-6.4,9.2-12.9,13.7-19.3c0.3-0.4,0.5-1,1.1-1.1c0.8-0.1,1.9-0.4,2.4,0.1c0.4,0.5-0.5,1.1-0.8,1.7
			c-5.1,7.2-10.1,14.4-15.2,21.6c-0.6,0.8-0.8,1.7-0.8,2.7c0,6.5,0,13.1,0,19.6c0,1-0.2,1.5-1.4,1.5c-0.9,0-1.2-0.4-1.2-1.2
			C125.1,54.7,125.1,51.3,125.1,47.8z"/>
		<path d="M36.1,47.8c0-3.3,0-6.6,0-9.9c0-0.8-0.2-1.5-0.7-2.1c-5.3-7.4-10.5-14.9-15.8-22.4c-0.2-0.3-0.7-0.6-0.5-1
			c0.2-0.5,0.8-0.2,1.2-0.3c1.1-0.2,1.8,0.4,2.5,1.3c4.6,6.4,9.2,12.9,13.8,19.3c0.8,1.2,0.8,1.2,1.7,0c4.5-6.4,9.1-12.7,13.6-19.1
			c0.8-1.1,1.6-1.6,2.9-1.4c0.3,0,0.7-0.1,0.9,0.2c0.2,0.3-0.1,0.6-0.3,0.8c-1.2,1.7-2.3,3.3-3.5,5c-4.2,5.9-8.3,11.8-12.5,17.7
			c-0.5,0.7-0.6,1.3-0.6,2.1c0,6.7,0,13.3,0,20c0,1-0.2,1.5-1.3,1.5c-0.9,0-1.3-0.4-1.2-1.3C36.2,54.7,36.1,51.2,36.1,47.8z"/>
	</g>
</g>
</svg>
