<?xml version="1.0" encoding="utf-8"?>
<!-- Generator: Adobe Illustrator 24.0.0, SVG Export Plug-In . SVG Version: 6.00 Build 0)  -->
<svg version="1.1" id="Layer_1" xmlns="http://www.w3.org/2000/svg" xmlns:xlink="http://www.w3.org/1999/xlink" x="0px" y="0px"
	 width="380.3px" height="121.9px" viewBox="0 0 380.3 121.9" style="enable-background:new 0 0 380.3 121.9;" xml:space="preserve"
	>
<style type="text/css">
	.st0{fill:#F9D12E;}
</style>
<g>
	<path d="M6.8,121.9H0V6h6.8V121.9z"/>
	<path class="st0" d="M31.6,0.9v18.6c0,0.5-0.4,0.9-0.9,0.9h-4.9c-0.5,0-0.9-0.4-0.9-0.9V0.9c0-0.5,0.4-0.9,0.9-0.9h4.9
		C31.2,0,31.6,0.4,31.6,0.9z"/>
	<path d="M75,118.2c-3.3,2.5-7.9,3.7-13.6,3.7c-13.6,0-20.5-6.8-20.5-20.5V67.3c0-13.6,6.8-20.5,20.5-20.5c5.8,0,10.3,1.2,13.6,3.7
		v-3.7h6.8v75H75V118.2z M61.4,115c9.1,0,13.6-4.5,13.6-13.6V67.3c0-9.1-4.5-13.6-13.6-13.6c-9.1,0-13.6,4.5-13.6,13.6v34.1
		C47.7,110.5,52.3,115,61.4,115z"/>
	<path d="M129.5,118.2c-3.3,2.5-7.9,3.7-13.6,3.7c-13.6,0-20.5-6.8-20.5-20.5V67.3c0-13.6,6.8-20.5,20.5-20.5
		c5.8,0,10.3,1.2,13.6,3.7V6h6.8v115.9h-6.8V118.2z M115.9,115c9.1,0,13.6-4.5,13.6-13.6V67.3c0-9.1-4.5-13.6-13.6-13.6
		c-9.1,0-13.6,4.5-13.6,13.6v34.1C102.3,110.5,106.8,115,115.9,115z"/>
	<path d="M156.8,121.9H150v-75h6.8v3.7c3.3-2.5,7.9-3.7,13.6-3.7h6.8v6.8h-6.8c-9.1,0-13.6,4.5-13.6,13.6V121.9z"/>
	<path d="M256.5,121.9c-13.6,0-20.5-6.8-20.5-20.5h6.8c0,9.1,4.5,13.6,13.6,13.6c9.1,0,13.6-4.5,13.6-13.6c0-5-5.7-9.9-17-14.7
		c-11.4-4.8-17-11.2-17-19.4c0-13.6,6.8-20.5,20.5-20.5c13.6,0,20.5,6.8,20.5,20.5h-6.8c0-9.1-4.5-13.6-13.6-13.6
		c-9.1,0-13.6,4.5-13.6,13.6c0,5,5.7,9.9,17,14.7c11.4,4.8,17,11.2,17,19.4C276.9,115,270.1,121.9,256.5,121.9z"/>
	<path d="M307.9,121.9c-13.6,0-20.5-6.8-20.5-20.5h6.8c0,9.1,4.5,13.6,13.6,13.6c9.1,0,13.6-4.5,13.6-13.6c0-5-5.7-9.9-17-14.7
		c-11.4-4.8-17-11.2-17-19.4c0-13.6,6.8-20.5,20.5-20.5c13.6,0,20.5,6.8,20.5,20.5h-6.8c0-9.1-4.5-13.6-13.6-13.6
		c-9.1,0-13.6,4.5-13.6,13.6c0,5,5.7,9.9,17,14.7c11.4,4.8,17,11.2,17,19.4C328.4,115,321.6,121.9,307.9,121.9z"/>
	<path d="M359.9,115c9.1,0,13.6-4.5,13.6-13.6h6.8c0,13.6-6.8,20.5-20.5,20.5c-13.6,0-20.5-6.8-20.5-20.5V67.3
		c0-13.6,6.8-20.5,20.5-20.5c13.6,0,20.5,6.8,20.5,20.5v8.2l-34.1,21.2v4.7C346.3,110.5,350.8,115,359.9,115z M359.9,53.7
		c-9.1,0-13.6,4.5-13.6,13.6v22.6l27.2-17.4l0.1-5.2C373.5,58.2,369,53.7,359.9,53.7z"/>
	<path d="M201.6,115c9.1,0,13.6-4.5,13.6-13.6h6.8c0,13.6-6.8,20.5-20.5,20.5c-13.6,0-20.5-6.8-20.5-20.5V67.3
		c0-13.6,6.8-20.5,20.5-20.5c13.6,0,20.5,6.8,20.5,20.5v8.2L188,96.7v4.7C188,110.5,192.5,115,201.6,115z M201.6,53.7
		c-9.1,0-13.6,4.5-13.6,13.6v22.6l27.2-17.4l0.1-5.2C215.3,58.2,210.7,53.7,201.6,53.7z"/>
	<g>
		<path d="M191.5,14.6c0.6,0,1.2,0.1,1.6,0.3c0.4,0.2,0.8,0.4,1.1,0.7c0.3,0.3,0.5,0.6,0.6,1c0.1,0.4,0.2,0.8,0.2,1.2
			c0,0.4-0.1,0.8-0.2,1.2c-0.1,0.4-0.3,0.7-0.6,1c-0.3,0.3-0.6,0.5-1.1,0.7c-0.4,0.2-1,0.3-1.6,0.3h-2.3v3.6h-2.2V14.6H191.5z
			 M190.9,19.4c0.3,0,0.5,0,0.7-0.1c0.2,0,0.4-0.1,0.6-0.2c0.2-0.1,0.3-0.3,0.4-0.5c0.1-0.2,0.2-0.5,0.2-0.8s-0.1-0.6-0.2-0.8
			c-0.1-0.2-0.3-0.4-0.4-0.5c-0.2-0.1-0.4-0.2-0.6-0.2c-0.2,0-0.5-0.1-0.7-0.1h-1.7v3H190.9z"/>
		<path d="M205.4,14.6l3.8,10.1h-2.3l-0.8-2.3h-3.8l-0.8,2.3h-2.2l3.8-10.1H205.4z M205.5,20.9l-1.3-3.7h0l-1.3,3.7H205.5z"/>
		<path d="M219.5,14.6c0.5,0,0.9,0.1,1.2,0.2c0.4,0.1,0.7,0.3,0.9,0.6c0.3,0.3,0.5,0.6,0.6,0.9s0.2,0.7,0.2,1.1
			c0,0.6-0.1,1.1-0.4,1.5c-0.3,0.4-0.7,0.8-1.2,1v0c0.3,0.1,0.5,0.2,0.7,0.3c0.2,0.2,0.3,0.3,0.4,0.6c0.1,0.2,0.2,0.4,0.2,0.7
			c0.1,0.3,0.1,0.5,0.1,0.8c0,0.2,0,0.4,0,0.6c0,0.2,0,0.4,0,0.7c0,0.2,0.1,0.4,0.1,0.6c0.1,0.2,0.1,0.4,0.2,0.5h-2.2
			c-0.1-0.3-0.2-0.7-0.2-1.2c0-0.4-0.1-0.9-0.1-1.3c-0.1-0.5-0.2-0.9-0.5-1.2c-0.2-0.2-0.6-0.4-1.2-0.4h-2.2v4H214V14.6H219.5z
			 M218.7,19.2c0.5,0,0.9-0.1,1.2-0.3c0.3-0.2,0.4-0.6,0.4-1.1c0-0.5-0.1-0.8-0.4-1.1c-0.3-0.2-0.6-0.3-1.2-0.3h-2.4v2.9H218.7z"/>
		<path d="M230.5,14.6v10.1h-2.2V14.6H230.5z"/>
		<path d="M238.1,22.3c0.1,0.2,0.3,0.4,0.5,0.6c0.2,0.1,0.4,0.3,0.7,0.3c0.3,0.1,0.6,0.1,0.9,0.1c0.2,0,0.4,0,0.6-0.1
			c0.2,0,0.4-0.1,0.6-0.2c0.2-0.1,0.4-0.2,0.5-0.4s0.2-0.4,0.2-0.6c0-0.3-0.1-0.5-0.3-0.7c-0.2-0.2-0.4-0.3-0.7-0.4
			c-0.3-0.1-0.6-0.2-1-0.3c-0.4-0.1-0.7-0.2-1.1-0.3c-0.4-0.1-0.7-0.2-1.1-0.3c-0.4-0.1-0.7-0.3-1-0.5c-0.3-0.2-0.5-0.5-0.7-0.8
			c-0.2-0.3-0.3-0.7-0.3-1.2c0-0.5,0.1-1,0.3-1.4c0.2-0.4,0.5-0.7,0.9-1c0.4-0.3,0.8-0.4,1.2-0.6c0.5-0.1,0.9-0.2,1.4-0.2
			c0.5,0,1,0.1,1.5,0.2c0.5,0.1,0.9,0.3,1.3,0.6c0.4,0.3,0.7,0.6,0.9,1c0.2,0.4,0.3,0.9,0.3,1.5h-2.2c0-0.3-0.1-0.6-0.2-0.8
			s-0.3-0.4-0.4-0.5c-0.2-0.1-0.4-0.2-0.6-0.2c-0.2,0-0.5-0.1-0.8-0.1c-0.2,0-0.4,0-0.5,0.1c-0.2,0-0.3,0.1-0.5,0.2
			c-0.1,0.1-0.3,0.2-0.4,0.4c-0.1,0.1-0.1,0.3-0.1,0.5c0,0.2,0,0.4,0.1,0.5c0.1,0.1,0.2,0.2,0.4,0.3c0.2,0.1,0.5,0.2,0.9,0.3
			c0.4,0.1,0.9,0.2,1.5,0.4c0.2,0,0.5,0.1,0.8,0.2c0.3,0.1,0.7,0.3,1,0.5c0.3,0.2,0.6,0.5,0.9,0.9c0.2,0.4,0.4,0.8,0.4,1.4
			c0,0.5-0.1,0.9-0.3,1.3c-0.2,0.4-0.4,0.7-0.8,1c-0.4,0.3-0.8,0.5-1.3,0.7c-0.5,0.2-1.1,0.2-1.8,0.2c-0.6,0-1.1-0.1-1.6-0.2
			c-0.5-0.1-1-0.4-1.4-0.6c-0.4-0.3-0.7-0.7-1-1.1c-0.2-0.5-0.4-1-0.3-1.6h2.2C237.9,21.8,238,22,238.1,22.3z"/>
		<path d="M262.5,14.6l3.8,10.1H264l-0.8-2.3h-3.8l-0.8,2.3h-2.2l3.8-10.1H262.5z M262.6,20.9l-1.3-3.7h0l-1.3,3.7H262.6z"/>
		<path d="M277.1,24.7c-0.5,0.2-1,0.3-1.5,0.3c-0.8,0-1.5-0.1-2.1-0.4c-0.6-0.3-1.1-0.6-1.6-1.1c-0.4-0.5-0.8-1-1-1.7
			c-0.2-0.6-0.3-1.3-0.3-2.1c0-0.8,0.1-1.5,0.3-2.1c0.2-0.6,0.6-1.2,1-1.7c0.4-0.5,0.9-0.9,1.6-1.1c0.6-0.3,1.3-0.4,2.1-0.4
			c0.5,0,1,0.1,1.5,0.2c0.5,0.2,0.9,0.4,1.3,0.7c0.4,0.3,0.7,0.7,1,1.1c0.3,0.4,0.4,1,0.5,1.5h-2.1c-0.1-0.6-0.4-1-0.8-1.3
			c-0.4-0.3-0.8-0.4-1.4-0.4c-0.5,0-0.9,0.1-1.3,0.3c-0.4,0.2-0.6,0.5-0.9,0.8c-0.2,0.3-0.4,0.7-0.5,1.1c-0.1,0.4-0.1,0.8-0.1,1.3
			c0,0.4,0.1,0.8,0.1,1.2c0.1,0.4,0.3,0.8,0.5,1.1c0.2,0.3,0.5,0.6,0.9,0.8c0.4,0.2,0.8,0.3,1.3,0.3c0.7,0,1.3-0.2,1.7-0.6
			c0.4-0.4,0.6-0.9,0.7-1.6h-2.2v-1.7h4.3v5.5h-1.4l-0.2-1.2C278.1,24.1,277.6,24.5,277.1,24.7z"/>
		<path d="M293.5,14.6v1.9h-5.4v2.2h4.9v1.7h-4.9v2.5h5.5v1.9h-7.7V14.6H293.5z"/>
		<path d="M301.3,14.6l4.2,6.8h0v-6.8h2.1v10.1h-2.2l-4.2-6.8h0v6.8H299V14.6H301.3z"/>
		<path d="M320,17.3c-0.1-0.2-0.3-0.4-0.5-0.6s-0.4-0.3-0.7-0.4c-0.3-0.1-0.5-0.1-0.8-0.1c-0.5,0-0.9,0.1-1.3,0.3
			c-0.4,0.2-0.6,0.5-0.9,0.8c-0.2,0.3-0.4,0.7-0.5,1.1c-0.1,0.4-0.1,0.8-0.1,1.3c0,0.4,0.1,0.8,0.1,1.2c0.1,0.4,0.3,0.8,0.5,1.1
			c0.2,0.3,0.5,0.6,0.9,0.8c0.4,0.2,0.8,0.3,1.3,0.3c0.7,0,1.2-0.2,1.6-0.6c0.4-0.4,0.6-1,0.7-1.6h2.2c-0.1,0.6-0.2,1.2-0.4,1.7
			c-0.2,0.5-0.5,0.9-0.9,1.3c-0.4,0.4-0.8,0.6-1.4,0.8c-0.5,0.2-1.1,0.3-1.7,0.3c-0.8,0-1.5-0.1-2.1-0.4c-0.6-0.3-1.1-0.6-1.6-1.1
			c-0.4-0.5-0.8-1-1-1.7c-0.2-0.6-0.3-1.3-0.3-2.1c0-0.8,0.1-1.5,0.3-2.1c0.2-0.6,0.6-1.2,1-1.7c0.4-0.5,0.9-0.9,1.6-1.1
			c0.6-0.3,1.3-0.4,2.1-0.4c0.6,0,1.1,0.1,1.6,0.2c0.5,0.2,0.9,0.4,1.3,0.7c0.4,0.3,0.7,0.7,1,1.1c0.3,0.5,0.4,1,0.5,1.6h-2.2
			C320.2,17.8,320.2,17.6,320,17.3z"/>
		<path d="M326.9,14.6h2.5l2.4,4l2.4-4h2.5l-3.8,6.3v3.9h-2.2v-4L326.9,14.6z"/>
	</g>
</g>
</svg>
