<svg xmlns="http://www.w3.org/2000/svg" width="381.026" height="61.45" viewBox="0 0 381.026 61.45">
  <g id="Group_49" data-name="Group 49" transform="translate(-333.991 -339.238)">
    <g id="Group_4" data-name="Group 4" transform="translate(333.991 339.238)">
      <path id="Path_1" data-name="Path 1" d="M0,52.649H39.455v7.625H24.406V100.08H15.475V60.366H0Z" transform="translate(0 -39.952)" fill="#fff"/>
      <path id="Path_2" data-name="Path 2" d="M894.261,52.68c3.564,0,7.018-.032,10.469.042.416.009.942.515,1.211.925q10.794,16.48,21.54,32.992a3.472,3.472,0,0,0,1.01,1.086V52.771h8.366V100.2c-2.1,0-4.172.011-6.249,0-1.443-.01-3.133.4-4.257-.211s-1.693-2.255-2.474-3.466q-10.126-15.692-20.241-31.391a3.969,3.969,0,0,0-1-1.145v36.127h-8.378Z" transform="translate(-678.598 -39.97)" fill="#fff"/>
      <path id="Path_3" data-name="Path 3" d="M1201.877,72.684a27.764,27.764,0,0,1,2.085-11.293c3.454-8.157,9.583-12.846,18.43-13.641,10.807-.97,19.484,4,23.264,14.205a30.724,30.724,0,0,1,1.671,7.485c.684,6.7-.375,13.12-4.376,18.7-5.573,7.779-13.4,10.573-22.618,9.052s-14.829-7.384-17.37-16.191a69.793,69.793,0,0,1-1.385-8.276Zm36.807-.313a19.5,19.5,0,0,0-2.163-9.532c-2.544-4.765-6.381-7.568-11.948-7.544-5.531.025-9.419,2.829-11.748,7.627a21.238,21.238,0,0,0,.428,20.034,12.257,12.257,0,0,0,11.4,7.013c5.232,0,8.986-2.613,11.52-7.061A20.725,20.725,0,0,0,1238.684,72.372Z" transform="translate(-911.802 -36.145)" fill="#fff"/>
      <path id="Path_4" data-name="Path 4" d="M319.342,79.394,331.215,100.3c-3.225,0-6.228.029-9.228-.041-.326-.007-.736-.533-.943-.909-3.295-5.976-6.584-11.955-9.816-17.966a1.9,1.9,0,0,0-2.031-1.227c-1.554.1-3.119.026-4.815.026v20.023h-9.056V52.934c.1-.05.171-.114.24-.113,6.949.067,13.9.081,20.845.252a17.833,17.833,0,0,1,4.823.963c5.924,1.869,9.016,6.285,8.9,12.51-.128,7.066-4.116,11.424-10.053,12.581A5.518,5.518,0,0,0,319.342,79.394Zm-14.934-6.537c2.991,0,5.914.087,8.829-.036a17.416,17.416,0,0,0,4.467-.812,4.884,4.884,0,0,0,3.31-3.409c1.2-4.107-.576-7.479-4.795-8.075-3.826-.54-7.756-.349-11.64-.473-.057,0-.118.1-.171.147Z" transform="translate(-224.104 -40.082)" fill="#fff"/>
      <path id="Path_5" data-name="Path 5" d="M609.53,100.138c-3.064,0-5.993.032-8.92-.042-.351-.009-.841-.524-1.007-.914q-1.882-4.43-3.636-8.914a1.331,1.331,0,0,0-1.471-1.025q-9.282.059-18.564,0a1.334,1.334,0,0,0-1.469,1.039q-1.712,4.5-3.534,8.955c-.149.364-.6.856-.915.863-2.888.067-5.779.039-8.788.039.192-.551.33-1,.5-1.439Q570.61,76.263,579.47,53.82a1.608,1.608,0,0,1,1.822-1.22c2.932.064,5.866.041,8.8.009a1.09,1.09,0,0,1,1.233.806q8.968,22.982,17.981,45.947C609.377,99.544,609.416,99.74,609.53,100.138ZM592.587,82.01l-7.338-19.388L577.781,82.01Z" transform="translate(-425.879 -39.914)" fill="#fff"/>
      <path id="Path_6" data-name="Path 6" d="M1532.171,100.384h-8.265V53h8.265Z" transform="translate(-1156.395 -40.217)" fill="#fff"/>
      <ellipse id="Ellipse_1" data-name="Ellipse 1" cx="3.859" cy="3.859" rx="3.859" ry="3.859" transform="translate(361.974 0)" fill="#fff"/>
      <ellipse id="Ellipse_2" data-name="Ellipse 2" cx="3.859" cy="3.859" rx="3.859" ry="3.859" transform="translate(373.309 0)" fill="#fff"/>
    </g>
  </g>
</svg>
