<?xml version="1.0" encoding="utf-8"?>
<!-- Generator: Adobe Illustrator 24.0.0, SVG Export Plug-In . SVG Version: 6.00 Build 0)  -->
<svg version="1.1" id="Layer_1" xmlns="http://www.w3.org/2000/svg" xmlns:xlink="http://www.w3.org/1999/xlink" x="0px" y="0px"
	 width="1195px" height="338.7px" viewBox="0 0 1195 338.7" style="enable-background:new 0 0 1195 338.7;" xml:space="preserve">
<style type="text/css">
	.st0{fill:#212121;}
</style>
<path class="st0" d="M230.7,172.1c-12.1,28.3-24.3,56.5-36.4,84.7c-7.2,16.8-14.6,33.5-21.6,50.4c-1.3,3.2-3.1,3.6-6.2,4.1
	c-10.5,1.7-15.2-2.7-19.3-12.5c-35.9-85.5-72.5-170.7-109-256c-1.7-4-0.8-4.8,3.1-4.5c4,0.3,8,0.4,12,0c3.7-0.4,5.1,1.4,6.4,4.5
	c33.5,80,67.1,160,100.7,240c0.5,1.1,0.6,2.6,2.5,3.4c3.4-7.9,6.8-15.8,10.2-23.7c14.6-34.3,29-68.6,43.7-102.8
	c1.4-3.3,1.4-6.1,0-9.4C202.1,115.6,187.6,80.8,173,46c-2.3-5.6-2.4-5.6,3.5-5.6c13.7,0,13.6,0,18.8,12.7
	c11.1,27.1,22.2,54.1,33.4,81.1c0.5,1.2,1.1,2.4,2,4.4c4.6-11.1,9-21.6,13.3-32c8.5-20.6,16.9-41.2,25.2-61.9c1.3-3.3,3-4.7,6.6-4.4
	c3.5,0.3,7,0.3,10.5,0c4-0.3,3.9,1.3,2.7,4.3c-6.5,15.3-12.9,30.6-19.3,46c-8.5,20.2-16.9,40.5-25.5,60.7c-1.2,2.9-1,5.3,0.2,8.1
	c18.1,41.8,36,83.6,54.1,125.5c0.3,0.6,0.6,1.2,1.3,2.3c1.8-4.1,3.5-7.8,5.1-11.5c32.4-77.6,64.9-155.2,97.2-232.8
	c1.3-3.2,2.9-4.7,6.5-4.5c5.5,0.3,10.9,0.1,17.2,0.1c-4.3,10-8.2,19.4-12.3,28.8c-34.1,79.6-68.2,159.2-102.2,238.8
	c-1.7,4-3.7,5.4-8.1,5.3c-12.5-0.3-12.5-0.1-17.3-11.5c-17.6-41.1-35.1-82.2-52.8-123.3C232.7,175,232.5,173.1,230.7,172.1z"/>
<path class="st0" d="M895.9,305.4c-20.6-32.2-41.2-64.5-62-96.6c-1.9-2.9-1.9-3.8,1.9-4.6c11.4-2.4,21.7-7.4,30.5-15
	c32.2-27.8,38.8-76.6,14.8-113.3c-15.2-23.3-36.2-37.3-64.9-37.4c-36.1-0.1-72.3,0-108.4-0.1c-4.2,0-5.2,1.2-5.2,5.3
	c0.1,43.6,0.1,87.2,0.1,130.9c0,41,0,81.9,0,122.9c0,4.4-2,10.2,0.9,13c2.9,2.8,8.6,0.4,13,0.9c4.5,0.6,5.5-1.2,5.5-5.5
	c-0.2-30.6,0-61.3-0.2-91.9c0-4.3,0.9-5.7,5.4-5.6c26.1,0.2,52.3,0.2,78.4,0c3.4,0,5.3,1.1,7.2,4c18.1,28.5,37,56.5,54.4,85.5
	c6.4,10.7,13.4,15.9,25.6,13.6c1.7-0.3,4.3,0.9,5.1-0.7C899.2,308.7,896.9,307,895.9,305.4z M727.5,190.2c-4.1,0-5.4-1.2-5.4-5.3
	c0.2-20.6,0.1-41.3,0.1-61.9c0-20.6,0.1-41.3-0.1-61.9c0-3.8,1.1-4.8,4.8-4.7c30.1,0.1,60.2-0.2,90.4,0.2
	c18.3,0.2,32.1,9.6,43.3,23.3c24.1,29.5,18.7,77.2-11.3,99.6c-9.5,7.1-20.2,10.8-32,10.8C787.4,190.1,757.5,190,727.5,190.2z"/>
<path class="st0" d="M1130.8,78.2c-16.3-26.3-39.3-40.5-71.1-39.9c-34.1,0.6-68.3,0.2-102.4,0c-4.4,0-5.6,1-5.6,5.5
	c0.2,43.6,0.1,87.2,0.1,130.9c0,40.6,0,81.3,0,121.9c0,4.6-2,10.6,0.8,13.5c3,3.2,9.1,0.6,13.9,1.2c4.2,0.5,5.3-1,5.3-5.2
	c-0.2-31,0-61.9-0.2-92.9c0-4,1.1-5,5-5c30,0.2,59.9,0.1,89.9,0.1c16,0,30.4-4.8,43.2-14.4C1144.7,167.7,1154.2,116,1130.8,78.2z
	 M1101.7,176c-10.1,9.4-22.2,13.9-35.8,14c-29.8,0.2-59.6,0-89.4,0.1c-3.7,0-4.8-0.9-4.8-4.7c0.2-20.8,0.1-41.6,0.1-62.4
	c0-20.6,0.1-41.3-0.1-61.9c0-3.7,0.8-4.8,4.7-4.8c29.6,0.2,59.3-0.1,88.9,0.2c18.5,0.2,32.6,9.5,43.6,23.6
	C1131.1,108.7,1127.7,151.8,1101.7,176z"/>
<path class="st0" d="M658.3,303.8C622.5,219,586.7,134.2,550.9,49.4c-4.7-11-4.6-10.9-16.6-11.1c-3.8-0.1-5.8,0.9-7.4,4.7
	c-36.5,86.1-73.2,172.2-109.8,258.3c-4.2,9.9-4.2,9.9,6.7,9.9c10.5,0,10.5,0,14.5-9.6c10.7-25.4,21.6-50.8,32.2-76.2
	c1.3-3.1,2.9-4.1,6.2-4.1c40.3,0.1,80.6,0.1,120.9,0c3.5,0,5.2,1,6.6,4.3c10.2,24.5,20.7,49,31,73.5c5.1,12.1,5.1,12.1,18.3,12.1
	C661.4,311.2,661.4,311.2,658.3,303.8z M590.9,205c-36.1,0.1-72.2,0-108.3,0c-3.3,0-5.5-0.2-3.6-4.7c19.2-45,38.3-90.2,57.5-135.2
	c0.2-0.4,0.6-0.8,1.3-1.9c6.8,16.2,13.3,31.8,19.8,47.5c12.3,29.6,24.7,59.2,37,88.8C596.7,204.6,596.6,205,590.9,205z"/>
</svg>
