<?xml version="1.0" encoding="utf-8"?>
<!-- Generator: Adobe Illustrator 24.0.0, SVG Export Plug-In . SVG Version: 6.00 Build 0)  -->
<svg version="1.1" id="Layer_1" xmlns="http://www.w3.org/2000/svg" xmlns:xlink="http://www.w3.org/1999/xlink" x="0px" y="0px"
	 width="432px" height="76.7px" viewBox="0 0 432 76.7" style="enable-background:new 0 0 432 76.7;" xml:space="preserve">
<g>
	<path d="M365.3,42.5c0,16.7-13,29-29.9,28.4c-15.6-0.5-27.6-12.8-27.4-28.6c0.2-17.2,12.7-28.4,28.9-28.5
		C353.6,13.7,365.6,27.2,365.3,42.5z M314.9,42.2c-0.3,12.2,10,22.2,21.6,22.3c11.8,0,22.1-10.1,21.9-22.1
		c-0.2-12.3-9.3-21.9-21.6-22.1C324.8,20.1,314.9,30.2,314.9,42.2z"/>
	<path d="M256.2,42.4c0-8.3,0-16.5,0-24.8c0-2.8,0.2-3.1,2.9-3c5.4,0.2,10.8,0.2,16.1,0.8c7.6,0.9,13.7,4.8,17.8,11.4
		c5.3,8.7,6,18,2.1,27.3c-2.7,6.3-7.6,11-14.1,13.6c-4.2,1.7-8.7,2.2-13.2,2.2c-3.2,0-6.4-0.1-9.5,0c-1.7,0-2.2-0.6-2.2-2.2
		C256.3,59.3,256.2,50.9,256.2,42.4z M262.9,42.2c0,6.4,0,12.8,0,19.3c0,1.3,0.4,2.1,1.8,2c4-0.1,7.9,0.1,11.8-1.2
		c5.6-1.9,9.8-5.5,12.3-10.8c2.2-4.8,2.5-10,1.1-15.1c-1.5-5.5-4.7-9.7-9.8-12.4c-4.6-2.4-9.5-3-14.6-3c-2.2,0-2.5,0.3-2.5,2.5
		C262.9,29.8,262.9,36,262.9,42.2z"/>
	<path d="M410.7,69.8c-2.9,0-5.4,0.1-7.8-0.1c-0.5,0-1-1-1.4-1.5c-4.8-6.8-9.5-13.7-14.3-20.5c-0.4-0.6-1-1-1.5-1.4
		c-0.2,0.1-0.3,0.2-0.5,0.3c-0.1,0.7-0.1,1.5-0.1,2.2c0,6.3-0.1,12.6,0,18.9c0,1.7-0.6,2.3-2.3,2.3c-5.3-0.1-4.4,0.5-4.4-4.4
		c0-16,0-32,0-48c0-2.7,0.2-3.1,3-3c4.3,0.1,8.6,0.1,12.9,0.7c8.3,1.1,13,7.1,12.7,15.5c-0.2,5.2-2.1,9.4-6.5,12.3
		c-1.3,0.9-2.9,1.3-4.4,1.9c-1.6,0.6-1.9,1.1-0.8,2.6c4.7,6.7,9.5,13.4,14.2,20C409.9,68.1,410.1,68.8,410.7,69.8z M385.1,30.5
		c0,2.5,0,4.9,0,7.4c0,1.5,0.8,2.3,2.2,2.1c2.8-0.3,5.7-0.3,8.3-1.7c5-2.5,6.3-10.2,2.3-14.1c-3-2.9-6.7-3.1-10.5-3.2
		c-1.7-0.1-2.4,0.7-2.3,2.4C385.1,25.7,385.1,28.1,385.1,30.5z"/>
	<path d="M147.8,69.9c-2.9,0-5.3,0.1-7.7-0.1c-0.5,0-1.1-0.9-1.5-1.5c-4.8-6.9-9.6-13.8-14.4-20.6c-0.4-0.5-1.1-0.8-1.6-1.2
		c-0.2,0.6-0.5,1.2-0.5,1.8c0,6.4,0,12.8,0,19.3c0,2.4-0.1,2.4-2.4,2.4c-5.1,0-4.2,0.4-4.2-4.2c0-16.1,0-32.2,0-48.2
		c0-2.7,0.3-3.1,3-3c4.3,0.1,8.6,0.1,12.9,0.7c8.2,1.1,12.7,6.7,12.7,15.1c0,5.5-2.2,9.8-6.8,12.9c-1.2,0.8-2.6,1.1-4,1.6
		c-1.8,0.6-2.1,1.1-1,2.7c4.7,6.6,9.4,13.3,14.1,19.9C146.9,68.1,147.2,68.8,147.8,69.9z M122.2,30.5
		C122.2,30.5,122.2,30.5,122.2,30.5c0,2.4,0.1,4.8,0,7.2c-0.1,1.6,0.6,2.5,2.2,2.3c3-0.2,5.9-0.3,8.7-1.8c4.8-2.6,5.9-10.4,1.9-14.1
		c-3-2.8-6.8-3-10.6-3.1c-1.5,0-2.2,0.6-2.2,2.1C122.2,25.6,122.2,28,122.2,30.5z"/>
	<path d="M200.2,11.8c0.9,2.1,1.7,3.6,2.4,5.3c2.4,5.5,4.7,11.1,7.1,16.6c2.4,5.5,4.7,11.1,7.1,16.6c2.4,5.7,4.8,11.3,7.3,17
		c0.9,2.1,0.6,2.6-1.7,2.6c-5,0-5,0-6.8-4.7c-1.2-3.2-2.6-6.3-4-9.4c-0.3-0.6-1.2-1.2-1.9-1.2c-6.5-0.1-13.1,0-19.6-0.1
		c-1.3,0-1.9,0.7-2.3,1.6c-1.6,3.8-3.3,7.6-4.8,11.4c-0.7,1.7-1.5,2.6-3.4,2.4c-1.1-0.2-2.3,0-3.4,0c-1.1,0-1.5-0.5-1.1-1.6
		c1.3-3.1,2.6-6.2,3.9-9.2c2.4-5.4,4.7-10.7,7.1-16.1c2.5-5.6,4.9-11.1,7.4-16.7c1.9-4.4,3.8-8.8,5.7-13.1
		C199.4,12.9,199.7,12.6,200.2,11.8z M200.1,28.3c-0.4,0.5-0.6,0.6-0.7,0.7c-2.5,5.8-5,11.6-7.5,17.4c-0.6,1.3,0,1.7,1.3,1.7
		c4.5,0,9,0,13.5,0c1.5,0,1.7-0.5,1.1-1.9c-1.8-4.2-3.5-8.4-5.3-12.5C201.8,32,201,30.3,200.1,28.3z"/>
	<path d="M99.2,36.2c0,5.9,0.1,11.9,0,17.8c-0.2,7.8-5,13.5-12,15.7C80,72,73,71.4,66.8,66.9c-4.9-3.6-6.5-8.9-6.8-14.6
		c-0.2-3.3-0.1-6.7-0.1-10.1c0-8.3,0-16.6,0-24.8c0-2.2,0.5-2.7,2.7-2.8c3.9-0.1,3.9-0.1,3.9,3.9c0,10.6,0,21.1,0.1,31.7
		c0,3.9,0.8,7.6,3.7,10.6c3.3,3.4,8.8,4.5,13.3,3.2c5.3-1.5,9-6.6,9-12.6c0-11.2,0-22.4,0-33.6c0-2.6,0.4-3,3-3c3.7,0,3.7,0,3.7,3.6
		c0,6,0,12,0,18C99.3,36.2,99.2,36.2,99.2,36.2z"/>
	<path d="M20.5,63.3c1.2,0.1,1.9,0.2,2.7,0.2c7.9,0,15.7,0.1,23.6,0c1.7,0,2.3,0.5,2.2,2.1c-0.2,4.9,0.7,4.3-4.3,4.3
		c-11,0-22,0-32.9,0c-0.7,0-1.4-0.3-2.2-0.5c0.3-0.7,0.4-1.5,0.8-2.1c7-11.6,14-23.1,21-34.6c2-3.2,3.9-6.4,5.9-9.7
		c0.3-0.5,0.3-1.1,0.5-1.6c-0.5-0.1-1.1-0.4-1.6-0.4c-7,0-14-0.1-21.1,0c-1.7,0-2.2-0.5-2.2-2.2c0.1-5-0.3-4.2,4.2-4.3
		c9.8,0,19.7,0,29.5,0c0.8,0,1.7,0.3,2.5,0.5c-0.3,0.8-0.4,1.7-0.9,2.4c-6.7,11-13.4,22-20,33C25.7,54.6,23.2,58.7,20.5,63.3z"/>
	<path d="M165.8,42.3c0,8.3,0,16.7,0,25c0,2.6,0,2.7-2.6,2.6c-4.9,0-4.1,0.3-4.1-4.1c0-16.1,0-32.2,0-48.4c0-2.6,0.3-2.9,2.9-2.9
		c3.8,0,3.8,0,3.8,3.8C165.8,26.4,165.8,34.4,165.8,42.3z"/>
</g>
</svg>
